<svg data-name="outline / production" xmlns="http://www.w3.org/2000/svg" width="20" height="20" class="side-nav-icon Fn1 Zm1"><path d="M4.75 18h-.5C3.01 18 2 16.99 2 15.75v-2.5C2 12.01 3.01 11 4.25 11h.5C5.99 11 7 12.01 7 13.25v2.5C7 16.99 5.99 18 4.75 18zm-.5-5.5a.75.75 0 00-.75.75v2.5c0 .414.336.75.75.75h.5a.75.75 0 00.75-.75v-2.5a.75.75 0 00-.75-.75h-.5zM8.75 9h-4.5C3.01 9 2 7.99 2 6.75v-2.5C2 3.01 3.01 2 4.25 2h4.5C9.99 2 11 3.01 11 4.25v2.5C11 7.99 9.99 9 8.75 9zm-4.5-5.5a.75.75 0 00-.75.75v2.5c0 .414.336.75.75.75h4.5a.75.75 0 00.75-.75v-2.5a.75.75 0 00-.75-.75h-4.5zM15.75 18h-4.5C10.01 18 9 16.99 9 15.75v-2.5C9 12.01 10.01 11 11.25 11h4.5c1.24 0 2.25 1.01 2.25 2.25v2.5c0 1.24-1.01 2.25-2.25 2.25zm-4.5-5.5a.75.75 0 00-.75.75v2.5c0 .414.336.75.75.75h4.5a.75.75 0 00.75-.75v-2.5a.75.75 0 00-.75-.75h-4.5zM15.75 9h-.5C14.01 9 13 7.99 13 6.75v-2.5C13 3.01 14.01 2 15.25 2h.5C16.99 2 18 3.01 18 4.25v2.5C18 7.99 16.99 9 15.75 9zm-.5-5.5a.75.75 0 00-.75.75v2.5c0 .414.336.75.75.75h.5a.75.75 0 00.75-.75v-2.5a.75.75 0 00-.75-.75h-.5z" fill="var(--iconPrimary, #222)"></path></svg>