<svg xmlns="http://www.w3.org/2000/svg" id="Layer_1" viewBox="0 0 160 100"><defs><linearGradient id="linear-gradient" x1="52.28" x2="31.01" y1="36.11" y2="35.66" gradientTransform="matrix(1 0 0 -1 0 102)" gradientUnits="userSpaceOnUse"><stop offset="0" stop-color="#3e4d53"/><stop offset="1" stop-color="#667073"/></linearGradient><linearGradient id="linear-gradient1" x1="105.76" x2="54.03" y1="94.39" y2="42.55" gradientTransform="matrix(1 0 0 -1 0 102)" gradientUnits="userSpaceOnUse"><stop offset=".22" stop-color="#7ebfdd"/><stop offset="1" stop-color="#1798c2"/></linearGradient><linearGradient id="linear-gradient2" x1="93.92" x2="93.24" y1="30.91" y2="17.9" gradientTransform="matrix(1 0 0 -1 0 102)" gradientUnits="userSpaceOnUse"><stop offset="0" stop-color="#a0a6ab"/><stop offset="1" stop-color="#d8dadd"/></linearGradient><style>.st1{fill:#3e89a5}.st2{fill:#38a8ca}.st3{fill:#64b6d4}.st4{fill:#d1e3ed}.st8{fill:#8e979e}.st11{fill:#c7e6ed}.st13{fill:#e7f4f6}.st14{fill:#b7bfc5}.st15{fill:#d4d9dc}.st16{fill:#aadae5}.st17{fill:#224655}.st19{fill:#fff}.st21{fill:#97cce2}.st27{fill:#2d5b6c}</style></defs><g id="Generative_Object"><path d="M57.76 55.84c0 1.01.22 2.46-.3 3.29-.14-.43-.06-.96-.75-.37.32.36-.14 2.78.37 2.77l.52-1.5c.08.32.15.28.15.3.47 2.77.18 6.29.15 9.14 0 .02-.3.12-.3.22-.05 4.84.15 9.69-.15 14.53l2.25-.07c.03.37.15.43.15.45.02.09-.03.24 0 .3 0 .01-.32.04-.07.3.88-.12 1.76.1 2.62.15l-7.49-.07 1.35-1.8V48.43c-.31-.48-.61-.93-1.2-1.12.77-.45 2.48.12 2.7.97.3 1.2 0 5.97 0 7.56" class="st8"/><path d="M53.11 51.19c.17.61-.55 1.72-.6 2.1h-6.44l-.15-.15-11.61.15-.07 5.32c.11.15 1.49.06 1.8.07l3.07.45h4.34c-1.87.32-3.8.09-5.69.15-.27 0-.74-.15-.67.3-.42.01-2.74-.08-2.85.07l.07 5.17c3.87-.14 7.75.12 11.61.15.23.67.43.7 1.05.9-4.23.02-8.49.23-12.73.22l.07 5.32c3.97-.03 7.94.05 11.91 0l.15.9c-.14.02-.22-.26-.3-.07L46 76.81l-.15-4.49-11.61.07.07 5.47c2.72 0 5.44-.01 8.16 0-.37.98-.87 1.92-1.35 2.85-1.16 0-9.98.24-10.18-.22V51.28c7.25.2 14.96-.52 22.17-.07z" class="st3"/><path d="M53.41 51.19c.35.02 1.33-.15 1.5.22-.04 6.56.05 13.13 0 19.7-3.5.51-1.6-2.6-2.1-4.57-.03-.13-.29-.06-.3-.07-.06-.12.1-.5-.07-.6h-5.47c-.62-.2-.82-.23-1.05-.9 2.17.02 4.34-.01 6.52 0v-5.54c-5.11.09-10.25-.01-15.35.15-.07-.45.4-.29.67-.3 1.89-.06 3.82.17 5.69-.15h-4.34l-3.07-.45c3.21.14 6.46-.23 9.66.15-.11-.88.36-.41.37-.45.05.1-.26.22-.07.3l6.29.15c.47-.21.12-4.74.22-5.54.05-.38.77-1.49.6-2.1z" class="st2"/><path d="m50.27 47.75 3.74.22-.6 3.22h-.3c-7.21-.44-14.91.27-22.17.07v29.21c.21.47 9.02.22 10.18.22-.71 1.37-1.47 2.71-2.25 4.04-1.79-.02-6.14.33-7.56 0-.72-.17-1.08-.93-1.27-1.57V49.01l.97-1.27c6.41.08 12.84-.11 19.25 0Z" style="fill:url(#linear-gradient)"/><path d="M43.15 49.1c.6-.28.97.65.45.9-.6.28-.97-.65-.45-.9m-1.5 0c.6-.28.97.65.45.9-.6.28-.97-.65-.45-.9" style="fill:#8cadbc"/><path d="M54.91 71.11c0 1.1.21 9.39-.22 9.59-4.52-.02-9.04.03-13.55 0 .48-.92.97-1.87 1.35-2.85 3.33.01 6.71.02 10.03-.22l-.07-5.32c-1.85.21-4.3-.28-6.07 0l-.15-.9c2.07-.02 4.14.02 6.22 0l.07-4.94s.27-.06.3.07c.5 1.96-1.4 5.08 2.1 4.57Z" class="st2"/><path d="M57.46 59.13c.05.15.07.58.15.9l-.52 1.5c-.51 0-.06-2.41-.37-2.77.68-.59.61-.06.75.37z" class="st15"/><path d="M52.51 53.29c-.11.8.24 5.33-.22 5.54L46 58.68c-.19-.08.13-.2.07-.3.22-.6.28-4.64 0-5.09z" class="st19"/><path d="M38.88 84.74a94 94 0 0 0 2.25-4.04c4.52.03 9.04-.02 13.55 0 .44-.19.22-8.48.22-9.59.05-6.56-.04-13.13 0-19.7-.16-.37-1.15-.2-1.5-.22l.6-3.22-3.74-.22c1.54.03 5.16-.61 5.54 1.12l-.15 34.75c-.07.28-.84 1.05-1.12 1.12-2.36.59-12.5.04-15.65 0" class="st17"/><path d="M42.55 81c1.25-.2 1.75 1.67.6 1.95-1.66.4-1.83-1.76-.6-1.95" class="st1"/><path d="M42.55 81.3c.72-.4 1.25 1.25.45 1.35-.66.08-.74-1.19-.45-1.35" style="fill:#2f6a7d"/><path d="M46.97 65.87h5.47c.17.1 0 .48.07.6l-.07 4.94c-2.07.02-4.15-.02-6.22 0-3.97.05-7.94-.03-11.91 0l-.07-5.32c4.24 0 8.5-.2 12.73-.22" class="st19"/><path d="M35.81 68.27c3.09-.32 6.42.23 9.51.37l-9.81.07-.82-.22c.34 0 .87-.2 1.12-.22" class="st11"/><path d="M34.77 66.62c3.55.14 7.18-.29 10.71.22l-5.47.07-5.24-.3Z" class="st4"/><path d="M34.91 67.22h5.55l5.01.22-5.46.08zm-.14 3.14 10.56.22c-2.97-.25-7.46.58-10.26.07-.21-.04-.52.08-.3-.3Z" class="st11"/><path d="M46 66.62c.21 0 .56 3.59-.15 3.74-.1-.31-.31-3.75.15-3.74" class="st3"/><path d="M45.92 64.97c-3.86-.03-7.74-.29-11.61-.15l-.07-5.17c.11-.15 2.43-.06 2.85-.07 5.1-.16 10.24-.06 15.35-.15v5.54c-2.17-.01-4.35.02-6.52 0" class="st19"/><path d="M37.01 60.03c2.81-.15 5.66.05 8.46.22l-10.56.22-.15-.3c.75.13 1.52-.11 2.25-.15Z" class="st15"/><path d="M34.77 63.17c3.57.05 7.14-.1 10.71.07l-5.32.22-5.39-.3Zm6.88-1.79c.3 0 3.81.03 3.82.22-3.41.39-7.2-.12-10.78.15 2.25-.25 4.71-.38 6.96-.37m-2.84.6c2.21-.03 4.44.21 6.66.22l-10.71.22c-.24-.41.22-.28.45-.3 1.14-.09 2.45-.13 3.59-.15Zm-4.04 1.79 10.86.22c-3.06-.26-7.68.6-10.56.07-.21-.04-.52.08-.3-.3Z" class="st11"/><path d="M45.85 59.73c.38-.28.33.23.37.37.07.2.08 3.97-.22 3.97-.34-.5-.33-4.21-.15-4.34" class="st3"/><path d="m34.77 60.93 10.71.07c-3.5.16-7.18.16-10.71-.07" class="st11"/><path d="M46.37 72.31c1.77-.28 4.22.21 6.07 0l.07 5.32c-3.33.24-6.7.24-10.03.22-2.72-.01-5.44 0-8.16 0l-.07-5.47 11.61-.07.15 4.49.07-4.57c.08-.18.16.1.3.07h-.01Z" class="st19"/><path d="M34.77 74.71c3.56.12 7.17-.24 10.71.22l-5.47.07-5.24-.3Zm0-.45c3.55.14 7.18-.29 10.71.22l-5.77.07-4.94-.3Zm0-.6 10.71.22c-3.56.05-7.2.32-10.71-.22m0 1.65 10.71.22c-3.56.05-7.2.32-10.71-.22" class="st11"/><path d="M34.91 75.76c2.06-.66 8.11.49 10.56.22l-10.71.07c-.15-.07.1-.28.15-.3Z" class="st11"/><path d="m35.06 72.91 10.41.37-10.7-.07z" class="st4"/><path d="m34.77 76.35 10.86.07c-3.58.24-7.26.12-10.86-.07" class="st11"/><path d="M46.07 58.38s-.48-.43-.37.45c-3.2-.38-6.46 0-9.66-.15-.3-.01-1.69.08-1.8-.07l.07-5.32 11.61-.15c-.06 1.42-.49 4 .15 5.24" class="st19"/><path d="M46.07 53.29c.28.46.22 4.49 0 5.09-.64-1.24-.21-3.82-.15-5.24z" class="st3"/><path d="M34.91 54.34c3.5.21 7.06-.29 10.56.22l-5.32.22-5.24-.45Z" class="st11"/><path d="M34.77 53.74c3.62.05 7.24-.1 10.86.07l-5.47.22-5.39-.3Z" class="st15"/><path d="M34.77 57.78c3.67.05 7.34-.1 11.01.07l-5.77.22-5.24-.3Zm0-2.84c3.56.2 7.15.05 10.71.22l-5.47.07-5.24-.3Zm0 1.19c3.57.05 7.14-.1 10.71.07-3.55.09-7.16.21-10.71-.07m0 .9 10.71.22c-3.32-.05-6.97.32-10.26.07-.23-.02-.69.11-.45-.3Z" class="st11"/><path d="M108.98 69.46c0 4.97.2 10.01.37 14.98-.82-.4-5.48.1-5.84-.3-.24-.27.06-1.61-.07-1.87-.28-.53-7.97 0-9.21-.22l-.67-12.43c5.13.01 10.3-.04 15.43-.15h-.01Z" class="st19"/><path d="m132.19 7.16-50.17.6c-1.42-.78-2.02 1.69-.45 1.8-.03.02.07.4-.07.45H34.92l-.07 1.8c-.63 11.58.47 23.71 0 35.35-1.55 0-3.11-.11-4.64.22V8.28c.31-.98.77-1.33 1.57-1.87 33.21.28 66.18.27 99.45 0 .36.24.68.41.97.75z" class="st17"/><path d="M132.19 7.16c.28.33.43.57.6.97v33.1c-1.35-.62-2.98-.36-4.49-.37l-.15-30.63c-.11-.15-2.56-.06-3-.07-14.33-.41-29.06 0-43.43 0H35.07c-.37.16-.2 1.28-.22 1.65l.07-1.8H81.5c.15-.04.04-.43.07-.45.73-.42 1.65-1.14.45-1.8z" class="st17"/><path d="m81.72 10.15-.07 2.7 21.49.15c-10.83-.03-21.67-.02-32.5 0h-1.2c-10.01.02-20.02-.01-30.03 0-.3.18-.73.47-.82.82-.39 1.5.02 7.35 0 9.36-.06 8 .26 15.99 0 23.96h-3.74c.47-11.63-.63-23.77 0-35.35.02-.37-.15-1.48.22-1.65h46.65Z" style="fill:#137ab4"/><path d="M128.3 40.86h-2.4c-.52 0-1.14-.15-1.5-.15.3-5.85.06-11.68 0-17.52-.02-2.09.46-7.65.15-9.21-.05-.24-.3-.74-.6-.82-.28-1.24 1.3-1.8 1.2-3 .43.01 2.89-.08 3 .07z" class="st2"/><path d="M82.02 7.76c1.21.66.28 1.38-.45 1.8-1.57-.11-.97-2.58.45-1.8" class="st1"/><path d="M125.15 10.15c.1 1.2-1.48 1.75-1.2 3-6.93-.29-13.88-.13-20.82-.15l-21.49-.15.07-2.7c14.37 0 29.11-.41 43.43 0Z" style="fill:#1694c0"/><path d="M78.57 51.79c-.03.41.14 1.21-.15 1.5l-5.54-.22V36.3l5.54-.15c-.05 5.09.5 10.58.15 15.65ZM93.1 46.4c-1.43-1.43-3.38-2.26-5.39-2.4l-.15-15.65 5.47-.22zM85.91 44c-.48.07-2.17.66-2.62.9-.78.41-3.35 3.26-3.07 1.5.34-4.56-.32-9.48.07-14.08l5.62.22z" class="st19"/><path d="M124.4 23.19c.06 5.84.3 11.68 0 17.52-2.75 0-11.67-.33-13.7.15-.51.12-1.32 1.05-1.42 1.57-.52 2.58-.14 10.14-.15 13.25-4.11.68-10.56-.79-14.38.15.29-2.11 1.15-1.64 2.92-1.65l.07-.67c-.23-.51-2.15-.02-2.4-.3-.11-.12.06-2.45-.15-3.29-.31-1.24-1.21-2.63-2.1-3.52l-.07-18.27-5.47.22L87.7 44c-.21 0-1.67-.02-1.8 0V32.54l-5.62-.22c-.39 4.6.27 9.52-.07 14.08-.04.5-.4 1.2 0 1.72l-1.65 3.67c.35-5.07-.2-10.56-.15-15.65l-5.54.15v16.77l5.54.22-12.21.15c-.07.15 1.45.22.75.6-.54.29-3.37-.39-4.12.22l15.65.07.15-.6-11.46-.07 11.61-.07c.28.7-.3 1.34.37 2.1l-21.42.15c0-1.59.3-6.37 0-7.56-.22-.86-1.92-1.42-2.7-.97-2.21-.71-13.32-.14-16.47-.15.26-7.98-.06-15.97 0-23.96z" style="fill:url(#linear-gradient1)"/><path d="m65.62 40.86 5.47.22-.08 12.21-5.62-.08zM70.64 13l.67 2.7h52.87c.12.09.12.81 0 .9-.11.08-2.37.28-2.7.3-14.61.77-30.91.09-45.68 0-12.28-.08-24.57-.22-36.84-.45-.05-.68-.34-2.9.3-3.15l30.18-.3z" class="st19"/><path d="m69.44 13-30.18.3c-.64.25-.35 2.46-.3 3.15 12.27.23 24.57.37 36.84.45 14.77.09 31.07.77 45.68 0 .33-.02 2.59-.22 2.7-.3.12-.09.12-.81 0-.9H71.31l-.67-2.7c10.83-.02 21.67-.03 32.5 0 6.94.02 13.89-.14 20.82.15.29.08.55.58.6.82.31 1.57-.17 7.12-.15 9.21H38.58c.02-2.01-.39-7.87 0-9.36.09-.36.52-.64.82-.82 10.01-.01 20.02.02 30.03 0z" class="st19"/><path d="m108.83 18.09-.15 1.35c-9.97.72-25.02.48-34.82-.3-.04 0-.47.45-.6.45-.8-.03-1.29-1.88.45-1.65.16.02.25.45.3.45.35 0 .18-.3.3-.3 10.71-.09 24.11-.88 34.52 0" class="st15"/><path d="m72.51 17.79-.3 1.65c-1.36-.2-11.19.42-11.46-.37-.07-.2-.04-.86.22-.97.62-.27 9.48.05 11.08 0 .24 0 .3-.16.45-.3h.01Z" class="st15"/><path d="M51.32 17.49v1.95c-.98.03-5.15.42-5.77.15-.43-.19-.14-1.75-.22-2.17.21-.29 5.25.05 5.99.07m-10.71-.3c.17-.07 3.43-.07 3.59 0 .3.13.31 2.14.22 2.32-.13.29-3.58.33-3.82.22-.28-.12-.61-2.31 0-2.55Z" class="st2"/><path d="m116.84 17.94.15 1.5c-.82-.13-6 .26-6.22-.22-.05-.11-.02-1.06.07-1.12.36-.26 5.15.31 5.99-.15h.01Z" class="st15"/><path d="M51.32 19.44v-1.95c.62.02 2.83-.28 3.22 0 .09.06.13 1.74.07 1.87-.25.55-2.81.06-3.29.07Z" style="fill:#c4c2c2"/><path d="M118.34 17.94c1.3-.58 1.32 1.31 1.05 1.5-1.1.78-1.8-1.16-1.05-1.5" class="st15"/><path d="m108.68 19.44.15-1.35c1.01.09 1.32-.28 1.2 1.12-.16.36-1.01.2-1.35.22Z" class="st14"/><path d="M118.04 14.05c.11-.04.55-.02.67.07.17.25.04 1.42-.45.15l-.07 1.12c-.27-.15-.56-1.18-.15-1.35Zm1.05 0c.16-.13.5.06.37.37-.34 2.32-.66-.14-.37-.37m3.74-.15c.11.15.25 1.65-.3 1.35-.06-.03.05-1.22.3-1.35m-1.8.15c.41.07.22.94.15 1.2-.34-.25-.27-.83-.15-1.2m.9 0 .3 1.05c-.29.12-.52-.84-.3-1.05" class="st2"/><path d="M121.18 17.49c2.36-.27 1.8 3.2-.3 2.55-.74-.23-.99-2.4.3-2.55" class="st15"/><path d="M121.63 17.79c1.19.85.54 1.77-.9 1.35l1.12-.22-.22-1.12Z" class="st19"/><path d="M116.99 14.05c.78-.34.91 1.13.45 1.35-.75.36-.98-1.12-.45-1.35" class="st2"/><path d="M117.14 14.35c.15 0 .36.9 0 .9-.3 0-.28-.92 0-.9" class="st19"/><path d="M110.03 80.85c.05 1.2-.4 3.52 1.27 3.89 2.64.59 12.2.07 15.5 0-.02.14.07.38-.07.45-5.31.04-10.65-.05-15.95 0-.16-.11-.91-.74-.97-.75-1.29-.19-4.89.16-6.52.15-14.47-.08-28.96.06-43.43 0 0-.02-.12-.08-.15-.45s-.12-1.8.22-1.95l8.91-.22.6-12.21c.11-.38.39-.28.67-.3 7.54-.41 15.83.13 23.44.15l.67 12.43c1.25.22 8.94-.3 9.21.22.14.27-.16 1.61.07 1.87.36.4 5.02-.1 5.84.3-.17-4.97-.37-10-.37-14.98 0-.02.3.05.3-.07 0-3.11-.16-6.26-.15-9.36v-.75l.9 21.57h.01Z" style="fill:url(#linear-gradient2)"/><path d="M79.17 55.69c.98.86 1.44 2.11 2.47 3 1.16 1 1.6.94 2.92 1.35-.12.26-.65.15-.9.15-8.63.05-17.28-.16-25.91.15 0-.02-.07.02-.15-.3s-.1-.75-.15-.9c.52-.83.29-2.28.3-3.29l21.42-.15Z" class="st17"/><path d="M94.75 55.84c3.82-.94 10.27.53 14.38-.15v4.34l-10.03.15c-.83-.72-2.06-2.59-2.7-1.35 0 .02-.38-.08-.3.22 2.66 2.83 5.47 5.18 8.24 7.86-.15.22-.29.28-.45.45l-8.39-7.94c.93-1.24-.5-1.85-1.05-1.35-1.51-.69-.74-1.99.3-2.25z" class="st27"/><path d="m69.44 69.76-.6 12.21-8.91.22c-.34.15-.25 1.59-.22 1.95l-2.25.07c.3-4.83.1-9.69.15-14.53 0-.11.3-.21.3-.22z" class="st19"/><path d="M91.9 60.03c.85.02 1.72-.11 2.55.15-.13.2-.36.73-.3.97 1.39.76 7.34 7.24 8.16 7.41.63.14 1.16-.77 1.57-1.2.16-.17.3-.23.45-.45.18-.26.36-.22.45-.75 0-.03.27-.13.15-.52s-5.12-4.84-5.84-5.47l10.03-.15c-.01 3.1.14 6.25.15 9.36 0 .12-.3.06-.3.07-5.12.11-10.29.16-15.43.15-7.61-.02-15.9-.56-23.44-.15-.29.02-.56-.08-.67.3l-11.53-.3c.03-2.84.32-6.37-.15-9.14 8.63-.31 17.28-.1 25.91-.15 2.32 1.37 5.47 1.13 7.79-.15h.45z" class="st14"/><path d="M91.45 60.03c-2.32 1.28-5.47 1.52-7.79.15.25 0 .77.11.9-.15 2.04.62 2.64.91 4.87.45.05-.01.41-.51.82-.6.47-.1.99.16 1.2.15" style="fill:#808185"/><path d="M81.34 62.72c2.94-.22 3.33 4.24.75 4.64-3.39.52-3.74-4.42-.75-4.64m12.21-4.34-1.65 1.65h-.45c-.21 0-.73-.25-1.2-.15.37-.25 2.6-2.11 2.77-2.1.11 0 .48.57.52.6z" class="st17"/><path d="M94.15 58.53c.25.19.65.79.9 1.05-.28.36-.58.56-.6.6-.83-.26-1.7-.13-2.55-.15l1.65-1.65c.25.14.57.13.6.15" style="fill:#476371"/><path d="M95.5 59.43c-.11.14-.43.13-.45.15-.25-.26-.65-.86-.9-1.05.06-.11.24-.39.3-.45.55-.51 1.98.11 1.05 1.35" class="st15"/><path d="M103.89 67.37c-.41.43-.94 1.34-1.57 1.2-.82-.18-6.77-6.66-8.16-7.41-.06-.25.17-.77.3-.97.02-.04.32-.24.6-.6.01-.02.34 0 .45-.15l8.39 7.94h-.01Zm-4.8-7.19c.72.63 5.73 5.08 5.84 5.47s-.15.5-.15.52l-8.39-7.34c.64-1.24 1.87.63 2.7 1.35" class="st17"/><path d="m96.4 58.83 8.39 7.34c-.09.53-.27.48-.45.75-2.76-2.68-5.58-5.04-8.24-7.86-.08-.31.29-.21.3-.22Z" style="fill:#75858e"/><path d="M85.91 44c.13-.02 1.58 0 1.8 0 2.02.13 3.96.96 5.39 2.4.89.89 1.79 2.28 2.1 3.52.21.85.04 3.17.15 3.29.25.28 2.16-.21 2.4.3l-.07.67c-1.77 0-2.63-.46-2.92 1.65-1.04.26-1.81 1.56-.3 2.25-.06.06-.24.34-.3.45-.02-.02-.35 0-.6-.15-.04-.02-.41-.59-.52-.6-.17-.01-2.4 1.85-2.77 2.1-.41.08-.77.59-.82.6-2.23.46-2.83.18-4.87-.45-1.32-.4-1.76-.35-2.92-1.35-1.03-.89-1.49-2.13-2.47-3-.68-.75-.09-1.39-.37-2.1l-11.61.07 11.46.07-.15.6-15.65-.07c.75-.62 3.58.07 4.12-.22.7-.38-.82-.45-.75-.6l12.21-.15c.29-.28.12-1.09.15-1.5l1.65-3.67c-.4-.52-.04-1.22 0-1.72-.28 1.76 2.29-1.09 3.07-1.5.46-.24 2.15-.83 2.62-.9h-.03Z" class="st27"/><path d="M91.6 47.15v.15c-.87-.16-1.88-1.17-2.77-1.35-1.52-.31-1.19.28-1.27.3-1.1.25-2.05-.55-1.42 1.65l1.42-.15v.15c-.65.16-.12 1.58-.3 1.87-.09.14-1.14.18-1.2.22l-.15-2.02c-1.86.2-2.5 2.74 0 2.17-.2.45.15 2.49 0 3.15-1.62-.07-3.34-.07-4.94.15-.34-1.15-.44-2.15-.15-3.37.24-1.02 1.12-1.57 1.35-2.47 2.84-2.91 6.36-3.07 9.44-.45z" class="st11"/><path d="M80.97 53.44c.12.4.35.57.45.75.5.94.47.83 1.2 1.5 2.56 2.34 5.51 2.43 8.09 0 .5.02 1.34-.18 1.95 0-4.93 8.16-17.59-.81-10.48-8.09-.23.9-1.1 1.45-1.35 2.47-.29 1.22-.19 2.22.15 3.37Z" style="fill:#6fb7c6"/><path d="M92.65 55.69c-.6-.18-1.45.02-1.95 0-2.69-.1-5.4-.32-8.09 0-.73-.67-.7-.55-1.2-1.5l7.34-.15c1.61.97 1.85-.61 2.17-.75.41-.18 1.87.28 2.17-.22.55-.93-.19-5.13-1.5-5.77v-.15c2.75 2.35 2.86 5.54 1.05 8.54z" class="st16"/><path d="M91.6 47.3c1.31.64 2.05 4.84 1.5 5.77-.3.5-1.76.05-2.17.22-.32.14-.56 1.72-2.17.75-.42-.25.22-.55-1.2-.75v-7.04c.08-.02-.25-.61 1.27-.3.89.18 1.9 1.19 2.77 1.35" class="st13"/><path d="M85.91 53.29c.52.02 1.16-.07 1.65 0 1.41.2.78.5 1.2.75l-7.34.15c-.1-.18-.33-.35-.45-.75 1.6-.22 3.33-.22 4.94-.15" class="st21"/><path d="M87.56 47.9v5.39c-.49-.07-1.13.02-1.65 0 .15-.65-.2-2.69 0-3.15l.15-.15c.06-.04 1.11-.08 1.2-.22.18-.29-.35-1.71.3-1.87" class="st11"/><path d="M86.06 49.99s-.15.14-.15.15c-2.5.57-1.86-1.98 0-2.17z" class="st11"/><path d="M87.56 46.25v1.5l-1.42.15c-.63-2.19.33-1.39 1.42-1.65" class="st21"/><path d="M90.71 55.69c-2.58 2.43-5.53 2.34-8.09 0 2.69-.32 5.4-.1 8.09 0" class="st16"/><path d="M132.79 63.62c-.02 6.61 0 13.23 0 19.84-.43 1.88-4.49 1.24-5.99 1.27.08-.52-.84-3.44-1.05-4.19 1.67-.47 3.59.11 5.24-.15.26-.05 1.08.1 1.2-.07.5-.71 0-15.16 0-17.3.69-.13.26.32.6.6" style="fill:#72797c"/><path d="M125.9 40.86v.6c-1.94-.03-3.91-.02-5.84 0s-7.4-.38-8.91 0c-.4.1-1.03.86-1.12 1.27.36 12.68-.48 25.45 0 38.12l-.9-21.57v-3.59c.01-3.11-.37-10.68.15-13.25.11-.52.91-1.45 1.42-1.57 2.04-.48 10.96-.16 13.7-.15.36 0 .98.15 1.5.15Z" class="st15"/><path d="M121.71 44h-1.35c-.45 0-3 .22-2.85-.37.75-.26 2.05-.35 2.85-.37.61-.02 4.66.03 4.87.15 1.31.74-3.29.59-3.52.6Z" class="st15"/><path d="m121.71 44 .3 1.5h-1.65c-.03-.49.02-1 0-1.5z" class="st8"/><path d="M125.9 41.46c1.34.02 4.9-.26 5.92 0 .52.14.71.74.97 1.12 0 7.01.02 14.03 0 21.04-.34-.27.09-.73-.6-.6.02-5.77.06-11.53 0-17.3-.21-.47-9.03-.23-10.18-.22l-.3-1.5c.23 0 4.83.15 3.52-.6-.21-.12-4.26-.17-4.87-.15-.11-.52.29-1.78-.3-1.8 1.93-.02 3.9-.03 5.84 0Z" style="fill:#a3a3a4"/><path d="M126.43 43.1c.53.07.41 1.14-.15 1.05s-.35-1.12.15-1.05" class="st15"/><path d="M130.99 80.4c-1.66.26-3.57-.32-5.24.15-.06-.21-.15-.14-.15-.15-.13-.47-.16-1.15-.3-1.65.71-.01 4.95.12 5.17-.15.13-.83.09-1.71.07-2.55 2.53-.3 1.17 2.41 1.5 4.12-.34.02-.73.17-1.05.22Z" class="st3"/><path d="M120.06 41.46c.59.02.19 1.28.3 1.8-.79.03-2.09.11-2.85.37-.16.59 2.41.36 2.85.37.02.49-.03 1 0 1.5-1.06 0-9.54-.07-9.74.37v34.45l14.98.07s.09-.06.15.15c.21.75 1.13 3.68 1.05 4.19-3.3.07-12.86.59-15.5 0-1.68-.37-1.23-2.69-1.27-3.89-.48-12.67.36-25.44 0-38.12.09-.41.72-1.17 1.12-1.27 1.51-.38 6.93.02 8.91 0Z" class="st17"/><path d="M120.29 81.45c.48-.18 3.15-.17 2.62.97-.14.29-2.56.32-2.77.22-.43-.19-.24-1.05.15-1.2Z" class="st19"/><path d="M116.39 43.1c.55-.09.68.97.15 1.05s-.68-.97-.15-1.05" class="st15"/><path d="M120.51 47.45c3.27-.02 6.54.02 9.81 0 .36.16.25 3.53.22 4.12 0 .11-.3.21-.3.22-.65.13-1.29 0-1.95 0-2.58-.03-5.2.02-7.79 0-2.57-.02-5.14.02-7.71 0l-.22-4.27c2.64-.15 5.29-.05 7.94-.07" class="st19"/><path d="M122.01 45.5c1.15 0 9.98-.24 10.18.22.06 5.76.02 11.53 0 17.3 0 2.14.5 16.59 0 17.3-.12.17-.94.03-1.2.07.32-.05.7-.21 1.05-.22-.33-1.71 1.03-4.42-1.5-4.12 0-.46.15-2.38-.22-2.55h-6.07c-.05-.21.03-.52 0-.75.77.02 6.02.09 6.22-.15l.07-5.02-6.07-.07-.15 4.94-.22-4.87c-.13-.15-.42-.05-.6-.07.15-.37-.15-.99-.15-1.2s.29-1.19.3-1.42c.03-.88.21-7.04 0-7.34-.14-.2-2.55 0-3-.07 0-1.87-.31-3.8-.15-5.69 2.59.02 5.2-.03 7.79 0l.37 14.53 1.72-.22c.23-4.77-.28-9.56-.15-14.3 0-.02.3-.11.3-.22.02-.59.13-3.96-.22-4.12-3.27.02-6.54-.02-9.81 0 .12-.66-.11-1.34-.15-1.95h1.66Z" class="st21"/><path d="m124.78 55.09 2.77.07-.23 11.16-2.62-.08zm-1.42 11.23c-.43-.07-2.71.12-2.85-.07-.26-.37.15-7.68.15-8.76.44.07 2.86-.12 3 .07.21.3.03 6.46 0 7.34 0 .24-.3 1.21-.3 1.42m6.89-14.53c-.13 4.75.38 9.54.15 14.3l-1.72.22-.37-14.53c.65 0 1.3.13 1.95 0Z" class="st15"/><path d="M120.36 45.5c.04.6.27 1.28.15 1.95-2.64.02-5.3-.08-7.94.07l.22 4.27c2.57.02 5.14-.02 7.71 0-.16 1.89.15 3.82.15 5.69 0 1.08-.41 8.39-.15 8.76.14.2 2.42 0 2.85.07 0 .21.3.83.15 1.2-3.18-.48-7.55.36-10.86 0l-.07 4.87c3.47.18 6.94.02 10.41.07.16 0 1.12.3 1.27.3.03.23-.05.54 0 .75.32 1.37.45 2.71.22 4.19-.82-.3-.13-3.65-.3-3.74h-11.53l-.07 4.72c4.23.08 8.5.15 12.73.07.14.5.17 1.18.3 1.65l-14.98-.07V45.87c.2-.45 8.67-.36 9.74-.37" class="st2"/><path d="m115.64 60.33 3.67.07-.07 5.92-3.67-.08z" class="st13"/><path d="M130.54 76.05c0 .84.05 1.71-.07 2.55-.21.27-4.45.14-5.17.15-4.23.07-8.5 0-12.73-.07l.07-4.72h11.53c.17.09-.52 3.45.3 3.74.22-1.49.09-2.82-.22-4.19h6.07c.37.17.22 2.09.22 2.55Z" class="st19"/><path d="M113.25 76.65h5.39l5.16.23-5.46.07zm-.15-1.64c3.57.05 7.14-.1 10.71.07l-5.32.22-5.39-.3Zm0 2.84c3.57.05 7.14-.1 10.71.07l-5.32.22-5.39-.3Zm0-.6h5.54l5.31.23-5.91.07z" class="st11"/><path d="m113.99 75.46 9.81.22-10.55.22-.15-.29zm-.74.59c3.51.3 7.06-.1 10.56.22l-5.47.07-5.09-.3Z" class="st21"/><path d="M123.51 67.52c.18.03.47-.08.6.07l.22 4.87.15-4.94 6.07.07-.07 5.02c-.2.24-5.44.17-6.22.15-.15 0-1.12-.3-1.27-.3-3.47-.06-6.94.11-10.41-.07l.07-4.87c3.31.36 7.68-.48 10.86 0" class="st19"/><path d="M113.25 71.56c3.55.14 7.18-.29 10.71.22l-5.62.07-5.09-.3Zm-.15-1.2c3.55.14 7.18-.29 10.71.22l-5.47.07-5.24-.3Zm.15.6h5.39l5.16.23-5.46.07zm0-1.2h5.39l5.16.23-5.46.07z" class="st11"/><path d="M115.49 68.57c2.72.48 5.53-.45 8.16.37l-10.56-.07z" class="st21"/><path d="M113.25 67.97c1.89-.61 8.09.49 10.41.22l-10.56.07c-.15-.07.1-.28.15-.3Z" style="fill:#b6d4e2"/><path d="M117.74 69.17c1.9-.02 4.02.13 5.92.37l-10.41.07-.15-.3c1.54.15 3.12-.14 4.64-.15Z" class="st11"/></g></svg>