<?xml version="1.0" encoding="utf-8"?>
<!-- Generator: Adobe Illustrator 28.2.0, SVG Export Plug-In . SVG Version: 6.00 Build 0)  -->
<svg version="1.1" id="Layer_1" xmlns="http://www.w3.org/2000/svg" xmlns:xlink="http://www.w3.org/1999/xlink" x="0px" y="0px"
	 viewBox="0 0 3800 1576" style="enable-background:new 0 0 3800 1576;" xml:space="preserve">
<style type="text/css">
	.st0{fill-rule:evenodd;clip-rule:evenodd;fill:#F8D7CD;}
	.st1{fill-rule:evenodd;clip-rule:evenodd;fill:#ED7D31;stroke:#FFFFFF;stroke-width:4.5833;stroke-miterlimit:8;}
	.st2{enable-background:new    ;}
	.st3{fill:#FFFFFF;}
	.st4{fill-rule:evenodd;clip-rule:evenodd;fill:#C48170;stroke:#FFFFFF;stroke-width:4.5833;stroke-miterlimit:8;}
	.st5{fill-rule:evenodd;clip-rule:evenodd;fill:#A5A5A5;stroke:#FFFFFF;stroke-width:4.5833;stroke-miterlimit:8;}
</style>
<g transform="translate(-435 -449)">
	<g>
		<path class="st0" d="M723,844.8h2440.5V452l785.5,785.5L3163.5,2023v-392.8H723V844.8z"/>
		<path class="st1" d="M442.5,1028.3c0-57.9,46.9-104.8,104.8-104.8h1012.3c57.9,0,104.8,46.9,104.8,104.8v419.3
			c0,57.9-46.9,104.8-104.8,104.8H547.3c-57.9,0-104.8-46.9-104.8-104.8V1028.3z"/>
		<g class="st2">
			<path class="st3" d="M659.9,1203.9v-95.2h68.8v11.2h-56.2v29.2h52.7v11.2h-52.7v32.4H731v11.2H659.9z"/>
			<path class="st3" d="M748.4,1203.9v-95.2h32.8c7.4,0,13.1,0.5,16.9,1.4c5.5,1.3,10.1,3.5,14,6.8c5,4.2,8.8,9.7,11.3,16.3
				c2.5,6.6,3.7,14.1,3.7,22.6c0,7.2-0.8,13.6-2.5,19.2c-1.7,5.6-3.9,10.2-6.5,13.9c-2.6,3.7-5.5,6.5-8.7,8.6
				c-3.1,2.1-6.9,3.7-11.4,4.8c-4.4,1.1-9.5,1.6-15.3,1.6H748.4z M761,1192.7h20.3c6.3,0,11.2-0.6,14.8-1.8c3.6-1.2,6.4-2.8,8.5-4.9
				c3-3,5.3-7,7-12c1.7-5,2.5-11.2,2.5-18.3c0-10-1.6-17.6-4.9-23c-3.3-5.3-7.2-8.9-11.9-10.7c-3.4-1.3-8.8-1.9-16.3-1.9h-20V1192.7
				z"/>
			<path class="st3" d="M840.1,1173.3l11.9-1c0.6,4.8,1.9,8.7,3.9,11.7c2.1,3.1,5.2,5.5,9.6,7.4c4.3,1.9,9.2,2.8,14.6,2.8
				c4.8,0,9-0.7,12.7-2.1c3.7-1.4,6.4-3.4,8.2-5.9c1.8-2.5,2.7-5.2,2.7-8.2c0-3-0.9-5.6-2.6-7.8c-1.7-2.2-4.6-4.1-8.6-5.6
				c-2.6-1-8.2-2.5-16.9-4.6c-8.7-2.1-14.9-4.1-18.4-5.9c-4.5-2.4-7.9-5.3-10.2-8.9c-2.2-3.5-3.3-7.5-3.3-11.9
				c0-4.8,1.4-9.3,4.1-13.5c2.7-4.2,6.7-7.3,11.9-9.5c5.2-2.2,11.1-3.2,17.5-3.2c7.1,0,13.3,1.1,18.7,3.4c5.4,2.3,9.5,5.6,12.4,10
				c2.9,4.4,4.5,9.4,4.7,15l-12.1,0.9c-0.6-6-2.8-10.6-6.6-13.6c-3.7-3.1-9.3-4.6-16.6-4.6c-7.6,0-13.2,1.4-16.7,4.2
				c-3.5,2.8-5.2,6.2-5.2,10.1c0,3.4,1.2,6.2,3.7,8.4c2.4,2.2,8.8,4.5,19,6.8c10.2,2.3,17.3,4.3,21.1,6.1c5.5,2.6,9.6,5.8,12.3,9.7
				c2.6,3.9,4,8.4,4,13.5c0,5.1-1.5,9.8-4.4,14.3c-2.9,4.5-7.1,8-12.5,10.5c-5.4,2.5-11.5,3.7-18.3,3.7c-8.6,0-15.8-1.3-21.7-3.8
				c-5.8-2.5-10.4-6.3-13.7-11.3C842,1185.4,840.3,1179.7,840.1,1173.3z"/>
			<path class="st3" d="M964.1,1161.1c10.1-10.6,31.1-34,38.7-42.2c3.5-3.5,6.9-5.1,10.4-5.1c3.6,0,7.2,1.9,10.8,5.1
				c17.2,15.7,44.8,46.4,64.9,72.5l-8,7.3c-18.9-26.2-46.7-57.7-61.6-71.6c-2.3-2.1-4-3.3-5.7-3.3c-1.7,0-3.3,1.3-5.5,3.3
				c-6.3,6.8-25.7,29.1-34.6,38.7c0.1,0.3,0.1,0.7,0.1,0.9c0,1.1-0.5,2.1-1.3,2.8L964.1,1161.1z M1064.9,1093.7
				c8.1,0,14.8,6.6,14.8,14.9c0,8.2-6.6,14.9-14.8,14.9c-8.4,0-15-6.7-15-14.9C1049.8,1100,1056.8,1093.7,1064.9,1093.7z
				 M1075.2,1108.5c0-5.9-4.7-10.6-10.4-10.6c-5.9,0-10.6,4.8-10.6,10.6c0,5.7,4.8,10.5,10.6,10.5
				C1070.9,1119.1,1075.2,1114,1075.2,1108.5z"/>
			<path class="st3" d="M1101.7,1146.3h111.1v9.4h-106c-0.8,1.3-2.5,2.3-4.3,2.5L1101.7,1146.3z"/>
			<path class="st3" d="M1233.4,1134.1c12,2.7,26.9,7.7,35.8,12l-4,8.4c-8.8-4.3-24.1-9.6-35.8-12.2L1233.4,1134.1z M1241.4,1199.1
				c42.7-14.4,72.9-37.8,90.4-77.4c2,1.7,6,4.7,8.1,6c-17.8,39.2-49.3,64.2-89.5,78.5c0.4,1.2-0.4,2.8-1.5,3.3L1241.4,1199.1z
				 M1248,1101.1c12,3.2,26.6,8.5,35.6,13l-4.4,8.1c-9.4-4.8-23.3-10.1-35.2-13.4L1248,1101.1z M1310.3,1096.7
				c5.5,4.7,13,12.9,17.2,19.3l-5.2,3.9c-3.7-5.7-11.4-14.6-16.9-19.4L1310.3,1096.7z M1328.7,1088.6c5.5,4.7,13,13,17.3,19.2
				l-5.2,3.9c-4-5.9-11.4-14.4-16.9-19.2L1328.7,1088.6z"/>
			<path class="st3" d="M1384.5,1101.5c-0.4,1.5-1.7,2.3-4.4,2.1c-4.7,21.7-7,45.5-7,59.8c0,10,0.4,20.1,1.7,26.3
				c2.5-6.5,8.2-20.5,10.1-25.1l5.6,5.9c-5.5,13.4-9.4,21-11.3,27c-0.7,2.3-1.1,4.4-1.1,6.3c0,1.5,0.3,2.8,0.7,4.1l-9.4,1.7
				c-4.3-12.6-5.9-28.1-5.9-45.8c0-17.4,2.8-41.8,7-64.8L1384.5,1101.5z M1469.2,1198.7c-4.8,0.3-9.7,0.4-14.6,0.4
				c-9.4,0-18.4-0.5-24.7-1.5c-16.4-2.4-23.9-11.4-23.9-22.1c0-9.2,5.1-16.9,12.5-25.7l8.6,3.7c-6.6,6.9-11.3,13.3-11.3,20.9
				c0,15.4,22.6,15.4,36.4,15.4c5.6,0,11.6-0.3,17.2-0.7L1469.2,1198.7z M1407.6,1117.5c17.2-0.4,40.3-2,58-5.1l0.8,9.3
				c-16.5,2.8-43.2,4.5-58.5,4.9L1407.6,1117.5z"/>
			<path class="st3" d="M736.2,1272c-0.4,0.7-0.9,1.2-1.7,1.5c-10.5,50.4-36.6,80.3-80.1,95.6c-1.5-2.3-4.4-5.9-6.1-7.7
				c41.2-13.4,66.5-43.1,74.5-83.4h-87v-8.9h90.4l1.9-1.2L736.2,1272z"/>
			<path class="st3" d="M841.8,1309.6h-31.7l0.5,49.3c0,11.6-9.8,11.8-24.9,11.6c-0.3-1.9-0.9-4.9-1.9-7.2c6.8,0.1,12.6,0,14.6-0.3
				c2.5-0.3,4-2.1,4.1-4.3l-0.4-42.3c-10.4,15.2-28.1,29.9-44.7,39.2c-1.3-2-3.5-4.5-5.3-6c17-8.6,35.4-24.6,45.6-40.2h-41.2v-7.7
				h45.5l-0.3-23.7l10.6,0.5c-0.1,1.1-1.2,1.9-2.7,2l0.1,21.1h31.8V1309.6z"/>
			<path class="st3" d="M862.1,1305.9h111.1v9.4h-106c-0.8,1.3-2.5,2.3-4.3,2.5L862.1,1305.9z"/>
			<path class="st3" d="M1096.5,1367.4c-2-4.5-4.4-9.3-7-14.1c-27.7,2.9-73.1,5.7-93.5,6.8c-0.4,1.3-1.3,2.4-2.5,2.7l-3.6-12
				c4-0.1,8.8-0.3,14-0.5c8.8-25.5,21.4-65.3,28.7-91.9l12.9,3.5c-0.5,1.2-1.9,1.9-3.9,1.9c-7.3,24.5-18.8,60.1-27.9,86.2
				c22.1-0.9,53.6-3.2,71.2-4.8c-6.9-11.4-15.7-23.5-23.7-32.5l8-4.5c14,15.3,29.9,40.6,36.7,55.1L1096.5,1367.4z"/>
			<path class="st3" d="M1230.5,1308.2c-0.3,0.1-0.5,0.3-0.8,0.3c-0.8,0-1.5-0.4-2-0.8c-10.1,3.3-24.9,8.8-35.9,13.6
				c0.3,3.1,0.4,6.5,0.4,10.4c0,4.3-0.1,9-0.4,14.2l-9.7,0.5c0.4-4.8,0.7-10.9,0.7-16.1c0-2,0-3.9-0.1-5.3
				c-15,7.3-27.3,16.2-27.3,24.2c0,7.7,9.2,11.4,27.5,11.4c12.9,0,24.9-0.3,33.4-1.3l0.1,8.9c-7.8,0.8-19.8,1.1-33.5,1.1
				c-25.5,0-36.8-6.1-36.8-19.7c0-11.7,15.4-23,35.4-33c-0.8-8.4-4.5-12.5-9.8-12.5c-9.7,0-19.8,5.5-31.8,18.8
				c-3.7,4.1-8.9,9.3-14.6,14.5l-6.5-6.5c13.3-11.7,25.8-22.9,33.5-49.1l-7.4,0.1h-22.2v-8.6c8.1,0.1,17.6,0.1,23,0.1l9-0.1
				c1.5-6.1,2.7-11.8,3.6-19l13,1.6c-0.3,1.3-1.3,2.1-3.3,2.4c-0.9,5.3-2.1,10-3.3,14.8c9-0.1,28.5-2.3,45.8-7.7l1.6,8.9
				c-16.6,5.2-36.7,7-49.9,7.4c-3.2,10-6.5,18-9.6,22.5h0.1c5.9-5.2,14.6-8.6,21.4-8.6c9,0,14.8,6.5,16.5,17.3
				c11.2-5.1,25.3-10.5,35.9-14.6L1230.5,1308.2z"/>
			<path class="st3" d="M1272.8,1304.5v43.5c10.4,15.8,29.4,15.8,53.3,15.8c14.4,0,31.3-0.4,41.6-1.1c-1.1,2.1-2.7,6.4-2.9,9
				c-9.2,0.4-23.8,0.7-37,0.7c-27.4,0-45.6,0-59-16.5c-6.5,5.9-13.6,11.8-19.3,16.4c0.1,1.2-0.3,1.7-1.2,2.1l-5.2-9.8
				c6.4-4.3,14.2-10.4,21-16.2V1313h-19.6v-8.5H1272.8z M1252.9,1254.6c8.9,5.7,19.2,14.5,23.8,21l-7,6
				c-4.4-6.6-14.5-15.7-23.4-21.7L1252.9,1254.6z M1299.6,1350.7v5.9h-8.8v-91h21.9c2-4.8,3.9-10.6,4.9-14.9l12,2.4
				c-0.4,0.9-1.2,1.3-2.8,1.5c-1.3,3.1-3.1,7.2-4.9,11h31v35h-53.3v12.9h58.8v43h-8.8v-5.7H1299.6z M1344.2,1273.3h-44.6v19.5h44.6
				V1273.3z M1349.6,1321.2h-50v21.8h50V1321.2z"/>
			<path class="st3" d="M1428.9,1277.5l2.1-0.1l4.7,0.3c0,0.8-0.1,2.1-0.1,3.2c-1.1,61.3-2.1,80.9-6,86.4c-2.9,4.1-5.6,5.1-15.3,5.1
				c-2.7,0-5.6-0.1-8.5-0.3c-0.3-2.7-1.1-6.4-2.5-8.9c6.1,0.5,11.7,0.5,14,0.5c2.1,0,3.3-0.4,4.5-2.1c2.8-3.9,4.1-22.2,5.1-75.3
				H1405c-1.2,35.4-5.5,68.4-22.2,88.6c-1.5-2-4.7-4.5-6.9-5.9c15.4-18.1,19.3-48.7,20.3-82.7H1378v-8.8h18.5
				c0.1-8.5,0.1-17.3,0.1-26.1l12.2,0.7c-0.3,1.2-1.2,2-3.3,2.3c0,7.7-0.1,15.4-0.3,23.1H1428.9z M1448.2,1267.2h45.2v103.5h-8.9
				v-8.9h-27.7v10h-8.6V1267.2z M1456.8,1353.1h27.7v-77.3h-27.7V1353.1z"/>
		</g>
		<path class="st4" d="M1725.5,1028.3c0-57.9,46.9-104.8,104.8-104.8h1012.3c57.9,0,104.8,46.9,104.8,104.8v419.3
			c0,57.9-46.9,104.8-104.8,104.8H1830.3c-57.9,0-104.8-46.9-104.8-104.8V1028.3z"/>
		<g class="st2">
			<path class="st3" d="M1793,1142.1v-88h17.5l20.8,62.3c1.9,5.8,3.3,10.2,4.2,13c1-3.2,2.6-7.9,4.7-14.1l21.1-61.3h15.7v88h-11.2
				v-73.7l-25.6,73.7h-10.5l-25.5-75v75H1793z"/>
			<path class="st3" d="M1894.5,1066.5v-12.4h10.8v12.4H1894.5z M1894.5,1142.1v-63.8h10.8v63.8H1894.5z"/>
			<path class="st3" d="M1963.4,1118.7l10.6,1.4c-1.2,7.3-4.1,13.1-8.9,17.2c-4.8,4.1-10.7,6.2-17.6,6.2c-8.7,0-15.7-2.9-21.1-8.6
				c-5.3-5.7-8-13.9-8-24.5c0-6.9,1.1-12.9,3.4-18.1s5.8-9,10.4-11.6c4.7-2.6,9.7-3.9,15.2-3.9c6.9,0,12.6,1.8,17,5.3
				c4.4,3.5,7.2,8.5,8.5,14.9l-10.5,1.6c-1-4.3-2.8-7.5-5.3-9.7c-2.5-2.2-5.6-3.2-9.2-3.2c-5.4,0-9.9,2-13.3,5.9
				c-3.4,3.9-5.1,10.1-5.1,18.5c0,8.6,1.6,14.8,4.9,18.7c3.3,3.9,7.6,5.8,12.9,5.8c4.2,0,7.8-1.3,10.6-3.9
				C1960.8,1128.2,1962.6,1124.1,1963.4,1118.7z"/>
			<path class="st3" d="M1983.1,1142.1v-63.8h9.7v9.7c2.5-4.5,4.8-7.5,6.9-8.9c2.1-1.4,4.4-2.2,6.9-2.2c3.6,0,7.3,1.2,11.1,3.5
				l-3.7,10c-2.6-1.6-5.3-2.3-7.9-2.3c-2.4,0-4.5,0.7-6.4,2.1c-1.9,1.4-3.2,3.4-4,5.9c-1.2,3.8-1.8,8-1.8,12.6v33.4H1983.1z"/>
			<path class="st3" d="M2020.2,1110.2c0-11.8,3.3-20.6,9.8-26.2c5.5-4.7,12.2-7.1,20.1-7.1c8.8,0,15.9,2.9,21.5,8.6
				c5.6,5.7,8.3,13.7,8.3,23.8c0,8.2-1.2,14.7-3.7,19.4c-2.5,4.7-6,8.4-10.8,11c-4.7,2.6-9.8,3.9-15.4,3.9c-8.9,0-16.1-2.9-21.7-8.6
				C2022.9,1129.2,2020.2,1121,2020.2,1110.2z M2031.3,1110.2c0,8.2,1.8,14.3,5.3,18.3c3.6,4.1,8,6.1,13.5,6.1c5.4,0,9.8-2,13.4-6.1
				c3.6-4.1,5.3-10.3,5.3-18.7c0-7.9-1.8-13.9-5.4-17.9c-3.6-4.1-8-6.1-13.4-6.1c-5.4,0-9.9,2-13.5,6.1
				C2033.1,1095.9,2031.3,1102,2031.3,1110.2z"/>
			<path class="st3" d="M2088.3,1123.1l10.7-1.7c0.6,4.3,2.3,7.6,5,9.8c2.7,2.3,6.6,3.4,11.5,3.4c5,0,8.6-1,11.1-3
				c2.4-2,3.6-4.4,3.6-7.1c0-2.4-1.1-4.4-3.2-5.8c-1.5-1-5.2-2.2-11.1-3.7c-7.9-2-13.4-3.7-16.5-5.2c-3.1-1.5-5.4-3.5-7-6.1
				c-1.6-2.6-2.4-5.4-2.4-8.6c0-2.8,0.6-5.5,2-7.9c1.3-2.4,3.1-4.4,5.3-6c1.7-1.2,4-2.3,6.9-3.2c2.9-0.9,6-1.3,9.3-1.3
				c5,0,9.4,0.7,13.2,2.2c3.8,1.4,6.6,3.4,8.4,5.9c1.8,2.5,3,5.8,3.7,9.9l-10.6,1.4c-0.5-3.3-1.9-5.8-4.2-7.7
				c-2.3-1.8-5.6-2.8-9.8-2.8c-5,0-8.5,0.8-10.6,2.5c-2.1,1.6-3.2,3.6-3.2,5.8c0,1.4,0.4,2.7,1.3,3.8c0.9,1.2,2.3,2.1,4.1,2.9
				c1.1,0.4,4.3,1.3,9.5,2.8c7.6,2,13,3.7,16,5c3,1.3,5.4,3.2,7.1,5.7c1.7,2.5,2.6,5.6,2.6,9.2c0,3.6-1.1,7-3.2,10.2
				c-2.1,3.2-5.1,5.6-9.1,7.4c-4,1.7-8.4,2.6-13.5,2.6c-8.3,0-14.6-1.7-18.9-5.2C2092.3,1134.9,2089.5,1129.8,2088.3,1123.1z"/>
			<path class="st3" d="M2150.1,1110.2c0-11.8,3.3-20.6,9.8-26.2c5.5-4.7,12.2-7.1,20.1-7.1c8.8,0,15.9,2.9,21.5,8.6
				c5.6,5.7,8.3,13.7,8.3,23.8c0,8.2-1.2,14.7-3.7,19.4c-2.5,4.7-6,8.4-10.8,11c-4.7,2.6-9.8,3.9-15.4,3.9c-8.9,0-16.1-2.9-21.7-8.6
				C2152.8,1129.2,2150.1,1121,2150.1,1110.2z M2161.2,1110.2c0,8.2,1.8,14.3,5.3,18.3c3.6,4.1,8,6.1,13.5,6.1c5.4,0,9.8-2,13.4-6.1
				c3.6-4.1,5.3-10.3,5.3-18.7c0-7.9-1.8-13.9-5.4-17.9c-3.6-4.1-8-6.1-13.4-6.1c-5.4,0-9.9,2-13.5,6.1
				C2163,1095.9,2161.2,1102,2161.2,1110.2z"/>
			<path class="st3" d="M2225.1,1142.1v-55.4h-9.5v-8.4h9.5v-6.8c0-4.3,0.4-7.5,1.1-9.5c1-2.8,2.9-5.1,5.5-6.8
				c2.6-1.7,6.3-2.6,11-2.6c3,0,6.4,0.4,10.1,1.1l-1.6,9.4c-2.2-0.4-4.4-0.6-6.4-0.6c-3.3,0-5.6,0.7-7,2.1s-2,4-2,7.9v5.9h12.4v8.4
				h-12.4v55.4H2225.1z"/>
			<path class="st3" d="M2280.3,1132.4l1.6,9.5c-3,0.6-5.8,1-8.2,1c-3.9,0-7-0.6-9.1-1.9c-2.2-1.2-3.7-2.9-4.6-4.9
				c-0.9-2-1.3-6.3-1.3-12.8v-36.7h-7.9v-8.4h7.9v-15.8l10.8-6.5v22.3h10.9v8.4h-10.9v37.3c0,3.1,0.2,5.1,0.6,5.9
				c0.4,0.9,1,1.6,1.9,2.1c0.9,0.5,2.1,0.8,3.7,0.8C2276.8,1132.9,2278.3,1132.7,2280.3,1132.4z"/>
			<path class="st3" d="M2326.7,1142.1v-88h63.7v10.4h-52v27h48.7v10.3h-48.7v30h54.1v10.4H2326.7z"/>
			<path class="st3" d="M2399.9,1142.1l23.3-33.2l-21.6-30.6h13.5l9.8,15c1.8,2.8,3.3,5.2,4.4,7.1c1.8-2.6,3.4-5,4.9-7l10.8-15.1
				h12.9l-22,30l23.7,33.8h-13.3l-13.1-19.8l-3.5-5.3l-16.8,25.2H2399.9z"/>
			<path class="st3" d="M2510.2,1118.7l10.6,1.4c-1.2,7.3-4.1,13.1-8.9,17.2c-4.8,4.1-10.7,6.2-17.6,6.2c-8.7,0-15.7-2.9-21-8.6
				c-5.3-5.7-8-13.9-8-24.5c0-6.9,1.1-12.9,3.4-18.1c2.3-5.2,5.8-9,10.4-11.6c4.7-2.6,9.7-3.9,15.2-3.9c6.9,0,12.6,1.8,17,5.3
				c4.4,3.5,7.2,8.5,8.5,14.9l-10.5,1.6c-1-4.3-2.8-7.5-5.3-9.7c-2.5-2.2-5.6-3.2-9.2-3.2c-5.4,0-9.9,2-13.3,5.9
				c-3.4,3.9-5.1,10.1-5.1,18.5c0,8.6,1.6,14.8,4.9,18.7c3.3,3.9,7.6,5.8,12.9,5.8c4.2,0,7.8-1.3,10.6-3.9
				C2507.6,1128.2,2509.4,1124.1,2510.2,1118.7z"/>
			<path class="st3" d="M2573.7,1121.6l11.2,1.4c-1.8,6.5-5,11.6-9.8,15.2c-4.8,3.6-10.9,5.4-18.3,5.4c-9.3,0-16.7-2.9-22.2-8.6
				c-5.5-5.7-8.2-13.8-8.2-24.2c0-10.7,2.8-19.1,8.3-25c5.5-5.9,12.7-8.9,21.5-8.9c8.5,0,15.5,2.9,20.9,8.7c5.4,5.8,8.1,14,8.1,24.5
				c0,0.6,0,1.6-0.1,2.9h-47.6c0.4,7,2.4,12.4,5.9,16.1c3.6,3.7,8,5.6,13.3,5.6c4,0,7.3-1,10.1-3.1
				C2569.9,1129.5,2572.1,1126.1,2573.7,1121.6z M2538.2,1104.1h35.6c-0.5-5.4-1.8-9.4-4.1-12.1c-3.4-4.2-7.9-6.2-13.4-6.2
				c-5,0-9.1,1.7-12.5,5C2540.5,1094.1,2538.6,1098.5,2538.2,1104.1z"/>
			<path class="st3" d="M2598.2,1142.1v-88h10.8v88H2598.2z"/>
			<path class="st3" d="M2661.2,1057.4c7.6,0.5,17.8,0.5,26.2,0.5c5.5,0,11.8-0.1,17-0.2c-0.1-5.9-0.2-12.8-0.2-17.1l12.4,0.6
				c-0.1,1.5-1.2,2.2-3.3,2.6c-0.1,2,0,11.4,0,13.5c14.4-0.7,28.7-2,40.8-4.8l1.1,8.1c-12.1,2.7-26.3,3.9-41.9,4.7
				c0.1,7.4,0.2,15,0.5,22.6c11.9-0.7,24.7-2.3,34.7-4.8l1,8c-10.3,2.2-23.2,3.7-35.5,4.3l1,20.5c11.3,3.7,23.4,10.1,36.2,19.2
				l-5.4,7.5c-11.1-8.7-21.5-14.6-30.5-18.1c0,2,0.1,4.2,0.1,5.8c-0.1,11.7-7.1,18.5-22,18.5c-15.6,0-27.1-6.4-27.1-18
				c0-11.8,13.4-18.3,27.2-18.3c4.1,0,8.4,0.4,12.9,1.5c-0.1-5.3-0.4-11.7-0.5-18.3c-3.9,0.1-8.4,0.2-11.9,0.2
				c-21,0-26.9-3.3-26.9-10.5c0-4.7,3.6-8.5,11.4-13.5l5.9,3.8c-5.5,3.1-8.5,5.8-8.5,8.2c0,3.7,5.8,4.4,21.4,4.4
				c2.7,0,5.5,0,8.2-0.1l-0.7-22.8c-5.3,0.2-11.4,0.2-17,0.2c-7.9,0-19.1,0-26.4-0.2V1057.4z M2706.7,1121.4c-4.9-1.4-9.5-2-13.8-2
				c-9.3,0-18.8,3.8-18.8,11.2c0,7.3,8.6,10.8,19.3,10.8c9.7,0,13.4-4.3,13.4-12.9L2706.7,1121.4z"/>
			<path class="st3" d="M2845.4,1065.2c-10.5,3.7-24.4,6-37.8,7c-5.2,28.2-12.7,56.2-22.5,76.9l-8.9-3.3
				c10.1-19.8,17.5-45.3,22.3-73.2c-2.5,0.1-18.9,0.2-22.6,0.1l-0.1-8.4c2,0.1,4.6,0.1,7.4,0.1c1.1,0,13.4,0,16.6-0.1
				c1.2-7.9,2.5-16.5,3.2-24l12.7,1.2c-0.1,1.4-1.8,2.3-3.6,2.5c-0.7,5.4-2,12.1-3.1,19.6c12.1-1.1,24.2-3.2,34.4-6.9L2845.4,1065.2
				z M2878.1,1147.1c-3.7,0.1-7.5,0.2-11.3,0.2c-11.6,0-22.5-0.9-29.2-2.7c-8.7-2.5-13.8-8.9-13.7-17c0.1-5.4,2.5-11.6,7.6-17.8
				l7.4,3.2c-4.3,5-6.4,9.8-6.4,13.7c0,9.7,9.3,12.2,31.7,12.2c4.6,0,9.2-0.1,13.8-0.5V1147.1z M2830.1,1087.9
				c12.7-4.1,30.1-6.6,44.7-6.3v8.4c-13.9-0.4-30,1.6-42.6,5.5L2830.1,1087.9z"/>
			<path class="st3" d="M1760.2,1293.3c-3.8-8.9-5.3-27.2-5.3-43.3c0-16.4,2.6-36.9,6.6-57.4l11.9,2.3c-0.2,1.2-1.5,2.1-3.2,2.2
				c-4.4,16.9-7.1,38.7-7.1,53c0,9.3,0.1,18.7,1.1,23.2c2.7-7.4,7.6-19.2,10.2-25l5.5,5.2c-4.1,8.4-12.7,27.1-12.7,32.8
				c0,1.7,0.4,3.6,1.2,5.9L1760.2,1293.3z M1791.5,1220.8c10.3,0.1,20.7,0.2,31-0.5c-0.5-10.6-0.9-19.7-1.1-28.8l12.4,0.4
				c-0.1,1.2-1.2,2.2-3.2,2.6c0.1,7.9,0.4,15.9,0.6,25.2c9.7-1,17.6-2.7,24.1-4.9l1.1,8.6c-5.9,1.8-14.4,3.6-24.8,4.4
				c0.5,13.7,1.1,28,1.5,35.9c9.3,3.8,18.7,9.8,25.1,15.6l-4.8,7.9c-5-5-12.3-10.5-19.9-14c-0.1,10.5-2.1,22.1-20.5,22.1
				c-14.4,0-24-6.9-24-17.7c0-12.5,12.7-18.1,24-18.1c3.8,0,7.9,0.5,11.7,1.6c-0.4-7.7-1.1-20.7-1.7-32.7c-3.8,0.2-9,0.4-12.5,0.4
				h-18.7L1791.5,1220.8z M1825.2,1269.2c-3.9-1.2-8.1-2.2-12.2-2.2c-7.5,0-16.5,2.7-16.5,10.5c0,6.9,7.4,10.3,16.4,10.3
				c9.1,0,12.4-4.4,12.4-14.3L1825.2,1269.2z"/>
			<path class="st3" d="M1951.5,1255.2v-10.3l37.3-0.1v32.7c-5.7,4.6-11.6,8-17.7,10.3c-6.1,2.3-12.3,3.5-18.7,3.5
				c-8.6,0-16.5-1.9-23.6-5.6c-7.1-3.7-12.4-9.1-16-16.1s-5.4-14.8-5.4-23.5c0-8.6,1.8-16.6,5.4-24c3.6-7.4,8.7-12.9,15.5-16.5
				s14.5-5.4,23.2-5.4c6.4,0,12.1,1,17.3,3.1c5.1,2.1,9.2,4.9,12.1,8.6c2.9,3.7,5.1,8.5,6.7,14.4l-10.5,2.9c-1.3-4.5-3-8-4.9-10.6
				c-2-2.6-4.8-4.6-8.4-6.2c-3.6-1.5-7.7-2.3-12.1-2.3c-5.3,0-9.9,0.8-13.8,2.4c-3.9,1.6-7,3.8-9.4,6.4c-2.4,2.6-4.2,5.5-5.6,8.7
				c-2.2,5.4-3.4,11.4-3.4,17.7c0,7.8,1.4,14.4,4.1,19.7c2.7,5.3,6.6,9.2,11.8,11.8c5.2,2.6,10.6,3.8,16.5,3.8c5,0,10-1,14.8-2.9
				c4.8-1.9,8.4-4,10.9-6.2v-16.4H1951.5z"/>
			<path class="st3" d="M2000.5,1257.8c0-11.8,3.3-20.6,9.8-26.2c5.5-4.7,12.2-7.1,20.1-7.1c8.8,0,15.9,2.9,21.5,8.6
				c5.6,5.7,8.3,13.7,8.3,23.8c0,8.2-1.2,14.7-3.7,19.4c-2.5,4.7-6,8.4-10.8,11c-4.7,2.6-9.8,3.9-15.4,3.9c-8.9,0-16.1-2.9-21.7-8.6
				C2003.3,1276.8,2000.5,1268.6,2000.5,1257.8z M2011.7,1257.8c0,8.2,1.8,14.3,5.3,18.3c3.6,4.1,8,6.1,13.5,6.1
				c5.4,0,9.8-2,13.4-6.1c3.6-4.1,5.3-10.3,5.3-18.7c0-7.9-1.8-13.9-5.4-17.9c-3.6-4.1-8-6.1-13.4-6.1c-5.4,0-9.9,2-13.5,6.1
				C2013.4,1243.5,2011.7,1249.6,2011.7,1257.8z"/>
			<path class="st3" d="M2069,1257.8c0-11.8,3.3-20.6,9.8-26.2c5.5-4.7,12.2-7.1,20.1-7.1c8.8,0,15.9,2.9,21.5,8.6
				c5.6,5.7,8.3,13.7,8.3,23.8c0,8.2-1.2,14.7-3.7,19.4c-2.5,4.7-6,8.4-10.8,11c-4.7,2.6-9.8,3.9-15.4,3.9c-8.9,0-16.1-2.9-21.7-8.6
				C2071.7,1276.8,2069,1268.6,2069,1257.8z M2080.1,1257.8c0,8.2,1.8,14.3,5.3,18.3c3.6,4.1,8,6.1,13.5,6.1c5.4,0,9.8-2,13.4-6.1
				c3.6-4.1,5.3-10.3,5.3-18.7c0-7.9-1.8-13.9-5.4-17.9c-3.6-4.1-8-6.1-13.4-6.1c-5.4,0-9.9,2-13.5,6.1
				C2081.8,1243.5,2080.1,1249.6,2080.1,1257.8z"/>
			<path class="st3" d="M2139.4,1295l10.5,1.6c0.4,3.2,1.7,5.6,3.7,7.1c2.7,2,6.3,3,11,3c5,0,8.9-1,11.6-3c2.7-2,4.6-4.8,5.5-8.4
				c0.6-2.2,0.8-6.8,0.8-13.9c-4.7,5.6-10.6,8.3-17.7,8.3c-8.8,0-15.6-3.2-20.4-9.5c-4.8-6.3-7.2-13.9-7.2-22.8
				c0-6.1,1.1-11.7,3.3-16.8c2.2-5.1,5.4-9.1,9.6-11.9c4.2-2.8,9.1-4.2,14.7-4.2c7.5,0,13.7,3,18.6,9.1v-7.7h10v55.1
				c0,9.9-1,17-3,21.1c-2,4.1-5.2,7.4-9.6,9.8c-4.4,2.4-9.8,3.6-16.2,3.6c-7.6,0-13.8-1.7-18.4-5.1
				C2141.5,1307,2139.2,1301.9,2139.4,1295z M2148.3,1256.7c0,8.4,1.7,14.5,5,18.3c3.3,3.8,7.5,5.8,12.5,5.8c5,0,9.1-1.9,12.5-5.7
				c3.4-3.8,5-9.8,5-18c0-7.8-1.7-13.7-5.2-17.7c-3.5-4-7.6-5.9-12.5-5.9c-4.8,0-8.9,2-12.3,5.9
				C2150,1243.2,2148.3,1249,2148.3,1256.7z"/>
			<path class="st3" d="M2209.5,1289.7v-88h10.8v88H2209.5z"/>
			<path class="st3" d="M2280.8,1269.2l11.2,1.4c-1.8,6.5-5,11.6-9.8,15.2c-4.8,3.6-10.9,5.4-18.3,5.4c-9.3,0-16.7-2.9-22.2-8.6
				c-5.5-5.7-8.2-13.8-8.2-24.2c0-10.7,2.8-19.1,8.3-25c5.5-5.9,12.7-8.9,21.5-8.9c8.5,0,15.5,2.9,20.9,8.7c5.4,5.8,8.1,14,8.1,24.5
				c0,0.6,0,1.6-0.1,2.9h-47.6c0.4,7,2.4,12.4,5.9,16.1c3.6,3.7,8,5.6,13.3,5.6c4,0,7.3-1,10.1-3.1
				C2276.9,1277.1,2279.1,1273.7,2280.8,1269.2z M2245.3,1251.7h35.6c-0.5-5.4-1.8-9.4-4.1-12.1c-3.4-4.2-7.9-6.2-13.4-6.2
				c-5,0-9.1,1.7-12.5,5C2247.5,1241.7,2245.6,1246.1,2245.3,1251.7z"/>
			<path class="st3" d="M2337.1,1261.4l11-1c0.5,4.4,1.7,8,3.6,10.8c1.9,2.8,4.9,5.1,8.9,6.8c4,1.7,8.5,2.6,13.5,2.6
				c4.4,0,8.4-0.7,11.8-2c3.4-1.3,5.9-3.1,7.6-5.4c1.7-2.3,2.5-4.8,2.5-7.5c0-2.8-0.8-5.2-2.4-7.2c-1.6-2.1-4.2-3.8-7.9-5.2
				c-2.4-0.9-7.6-2.4-15.7-4.3c-8.1-1.9-13.8-3.8-17-5.5c-4.2-2.2-7.3-4.9-9.4-8.2c-2.1-3.3-3.1-6.9-3.1-11c0-4.4,1.3-8.6,3.8-12.5
				c2.5-3.9,6.2-6.8,11.1-8.8c4.8-2,10.2-3,16.2-3c6.5,0,12.3,1.1,17.3,3.2c5,2.1,8.8,5.2,11.5,9.3c2.7,4.1,4.1,8.7,4.3,13.9
				l-11.2,0.8c-0.6-5.6-2.6-9.8-6.1-12.6c-3.5-2.8-8.6-4.3-15.3-4.3c-7,0-12.2,1.3-15.4,3.9c-3.2,2.6-4.8,5.7-4.8,9.3
				c0,3.2,1.1,5.8,3.4,7.8c2.2,2,8.1,4.1,17.6,6.3c9.5,2.1,16,4,19.5,5.6c5.1,2.4,8.9,5.4,11.3,9c2.4,3.6,3.7,7.8,3.7,12.5
				c0,4.7-1.3,9.1-4,13.2c-2.7,4.1-6.5,7.4-11.6,9.7s-10.7,3.5-17,3.5c-8,0-14.6-1.2-20-3.5c-5.4-2.3-9.6-5.8-12.7-10.5
				C2338.9,1272.6,2337.3,1267.3,2337.1,1261.4z"/>
			<path class="st3" d="M2421.7,1289.7v-88h10.8v31.6c5-5.8,11.4-8.8,19.1-8.8c4.7,0,8.8,0.9,12.3,2.8c3.5,1.9,6,4.4,7.5,7.7
				s2.3,8,2.3,14.3v40.4h-10.8v-40.4c0-5.4-1.2-9.3-3.5-11.8c-2.3-2.5-5.7-3.7-9.9-3.7c-3.2,0-6.2,0.8-9,2.5c-2.8,1.7-4.8,3.9-6,6.8
				c-1.2,2.8-1.8,6.8-1.8,11.8v34.9H2421.7z"/>
			<path class="st3" d="M2533.8,1269.2l11.2,1.4c-1.8,6.5-5,11.6-9.8,15.2c-4.8,3.6-10.9,5.4-18.3,5.4c-9.3,0-16.7-2.9-22.2-8.6
				c-5.5-5.7-8.2-13.8-8.2-24.2c0-10.7,2.8-19.1,8.3-25c5.5-5.9,12.7-8.9,21.5-8.9c8.5,0,15.5,2.9,20.9,8.7c5.4,5.8,8.1,14,8.1,24.5
				c0,0.6,0,1.6-0.1,2.9h-47.6c0.4,7,2.4,12.4,5.9,16.1c3.6,3.7,8,5.6,13.3,5.6c4,0,7.3-1,10.2-3.1
				C2529.9,1277.1,2532.2,1273.7,2533.8,1269.2z M2498.3,1251.7h35.6c-0.5-5.4-1.8-9.4-4.1-12.1c-3.4-4.2-7.9-6.2-13.4-6.2
				c-5,0-9.1,1.7-12.5,5S2498.7,1246.1,2498.3,1251.7z"/>
			<path class="st3" d="M2602.2,1269.2l11.2,1.4c-1.8,6.5-5,11.6-9.8,15.2c-4.8,3.6-10.9,5.4-18.3,5.4c-9.3,0-16.7-2.9-22.2-8.6
				c-5.5-5.7-8.2-13.8-8.2-24.2c0-10.7,2.8-19.1,8.3-25c5.5-5.9,12.7-8.9,21.5-8.9c8.5,0,15.5,2.9,20.9,8.7c5.4,5.8,8.1,14,8.1,24.5
				c0,0.6,0,1.6-0.1,2.9h-47.6c0.4,7,2.4,12.4,5.9,16.1c3.6,3.7,8,5.6,13.3,5.6c4,0,7.3-1,10.2-3.1
				C2598.3,1277.1,2600.6,1273.7,2602.2,1269.2z M2566.7,1251.7h35.6c-0.5-5.4-1.8-9.4-4.1-12.1c-3.4-4.2-7.9-6.2-13.4-6.2
				c-5,0-9.1,1.7-12.5,5S2567.1,1246.1,2566.7,1251.7z"/>
			<path class="st3" d="M2650.6,1280l1.6,9.5c-3,0.6-5.8,1-8.2,1c-3.9,0-7-0.6-9.1-1.9c-2.2-1.2-3.7-2.9-4.6-4.9
				c-0.9-2-1.3-6.3-1.3-12.8v-36.7h-7.9v-8.4h7.9v-15.8l10.8-6.5v22.3h10.9v8.4h-10.9v37.3c0,3.1,0.2,5.1,0.6,5.9
				c0.4,0.9,1,1.6,1.9,2.1s2.1,0.8,3.7,0.8C2647,1280.5,2648.6,1280.3,2650.6,1280z"/>
			<path class="st3" d="M2797.5,1238.5c-0.2,0.1-0.5,0.2-0.7,0.2c-0.7,0-1.4-0.4-1.8-0.7c-9.3,3.1-23,8.1-33.2,12.5
				c0.2,2.8,0.4,6,0.4,9.6c0,3.9-0.1,8.4-0.4,13.2l-9,0.5c0.4-4.4,0.6-10.1,0.6-14.9c0-1.8,0-3.6-0.1-4.9
				c-13.9,6.8-25.2,15-25.2,22.4c0,7.1,8.5,10.6,25.5,10.6c11.9,0,23-0.2,30.9-1.2l0.1,8.2c-7.3,0.7-18.3,1-31,1
				c-23.6,0-34.1-5.7-34.1-18.2c0-10.8,14.3-21.3,32.7-30.5c-0.7-7.8-4.2-11.6-9.1-11.6c-9,0-18.3,5-29.4,17.3
				c-3.4,3.8-8.2,8.6-13.5,13.4l-6-6c12.3-10.8,23.9-21.2,31-45.4l-6.9,0.1h-20.5v-8c7.5,0.1,16.2,0.1,21.3,0.1l8.4-0.1
				c1.4-5.7,2.5-10.9,3.3-17.6l12.1,1.5c-0.2,1.2-1.2,2-3.1,2.2c-0.9,4.9-2,9.2-3.1,13.7c8.4-0.1,26.3-2.1,42.3-7.1l1.5,8.2
				c-15.4,4.8-33.9,6.5-46.1,6.9c-3,9.2-6,16.6-8.9,20.8h0.1c5.4-4.8,13.5-8,19.8-8c8.4,0,13.7,6,15.3,16
				c10.3-4.7,23.4-9.7,33.2-13.5L2797.5,1238.5z"/>
			<path class="st3" d="M2826.3,1229.3c-4.7,7.7-9.8,14.6-15,20.5c-0.9-2-3-5.8-4.3-7.7c11.8-12.8,23.6-34.1,30.8-55.4l9.8,3.3
				c-0.5,0.9-1.4,1.2-2.8,1.1c-3.2,8.6-7,17.2-11.3,25.5l3.3,0.9c-0.2,0.7-0.9,1.4-2.5,1.5v81.5h-8V1229.3z M2919.9,1254.7h-33.1
				c-0.9,8.1-2.8,16-7.4,23.1c11.8,7.9,27.6,12.7,46.4,14.8c-1.8,1.8-4.1,5.3-5.3,7.7c-18.6-2.6-34.1-7.9-46-16.2
				c-6.4,6.6-15.9,12.3-29.9,16.5c-0.9-1.8-3.3-5.2-5-6.9c13.7-3.6,22.6-8.6,28.5-14.6c-5.9-5.2-10.7-11.4-14.3-18.7l7.5-2.5
				c2.8,5.7,6.8,10.7,11.7,15c3.4-5.7,5-11.8,5.7-18.2h-30.6v-34.1h31.2v-12.9h-35.2v-7.6h35.2v-13.2l10.6,0.6
				c-0.1,0.9-0.7,1.5-2.5,1.7v10.8h36.8v7.6h-36.8v12.9h32.5V1254.7z M2855.7,1247.5h23.5c0.1-2.1,0.1-4.1,0.1-6.2v-13.8h-23.6
				V1247.5z M2911.9,1227.6h-24.5v13.8c0,2.1,0,4.1-0.1,6.2h24.6V1227.6z"/>
			<path class="st3" d="M1826.2,1382.1c2.2-0.5,6.8-1.7,10.9-3c15.3-4.6,33.1-8.7,44.5-8.7c16.6,0,31.5,8.9,31.5,28.9
				c0,27.1-26.8,37-59.7,39.6c-0.5-1.8-1.7-6-2.5-7.5c28.9-2.1,53.4-10.5,53.4-31.6c0-15.4-10.9-22-24-21.9
				c-9.8,0.1-25.7,3.7-41.2,9c-2.8,1-5.9,2.1-7.9,2.7c-0.2,1-1.1,1.8-2,2.1L1826.2,1382.1z"/>
			<path class="st3" d="M1929.7,1350.1c9.2-0.4,85-5.8,101-5.9l0.1,9.2c-1.6-0.1-3.1-0.1-4.6-0.1c-7.1,0-13.2,1.2-21,6.3
				c-18.5,11.1-36.3,30.9-36.3,46.7c0,17.2,12.1,27.4,42.6,31.4l-4.1,8.6c-34.9-5-48-18.1-48-40c0-17.3,17.1-38.4,39.6-52.5
				c-13,0.9-49.8,3.7-65.7,5.2c-0.4,1-1.7,1.8-2.7,2L1929.7,1350.1z"/>
			<path class="st3" d="M2139.9,1352.7c-0.4,0.6-0.9,1.1-1.6,1.4c-9.7,46.6-33.8,74.3-74,88.4c-1.4-2.1-4.1-5.4-5.7-7.1
				c38.1-12.4,61.5-39.9,68.9-77.1H2047v-8.2h83.6l1.7-1.1L2139.9,1352.7z"/>
			<path class="st3" d="M2237.5,1387.5h-29.3l0.5,45.6c0,10.7-9.1,10.9-23,10.7c-0.2-1.7-0.9-4.6-1.7-6.6c6.3,0.1,11.7,0,13.5-0.2
				c2.3-0.2,3.7-2,3.8-3.9l-0.4-39.1c-9.6,14-26,27.7-41.3,36.3c-1.2-1.8-3.2-4.2-4.9-5.5c15.7-8,32.7-22.8,42.2-37.1h-38.1v-7.1
				h42.1l-0.2-21.9l9.8,0.5c-0.1,1-1.1,1.7-2.5,1.8l0.1,19.6h29.4V1387.5z"/>
			<path class="st3" d="M2256.2,1384h102.7v8.7h-98c-0.7,1.2-2.3,2.1-3.9,2.3L2256.2,1384z"/>
			<path class="st3" d="M2473.1,1440.9c-1.8-4.2-4.1-8.6-6.5-13c-25.6,2.7-67.7,5.3-86.5,6.3c-0.4,1.2-1.2,2.2-2.3,2.5l-3.3-11.1
				c3.7-0.1,8.1-0.2,12.9-0.5c8.1-23.6,19.8-60.4,26.6-85l11.9,3.2c-0.5,1.1-1.7,1.7-3.6,1.7c-6.8,22.6-17.3,55.6-25.8,79.7
				c20.4-0.9,49.6-3,65.8-4.4c-6.4-10.6-14.5-21.8-21.9-30l7.4-4.2c12.9,14.1,27.7,37.5,33.9,50.9L2473.1,1440.9z"/>
			<path class="st3" d="M2597,1386.1c-0.2,0.1-0.5,0.2-0.7,0.2c-0.7,0-1.4-0.4-1.8-0.7c-9.3,3.1-23,8.1-33.2,12.5
				c0.2,2.8,0.4,6,0.4,9.6c0,3.9-0.1,8.4-0.4,13.2l-9,0.5c0.4-4.4,0.6-10.1,0.6-14.9c0-1.8,0-3.6-0.1-4.9
				c-13.9,6.8-25.2,15-25.2,22.4c0,7.1,8.5,10.6,25.5,10.6c11.9,0,23-0.2,30.9-1.2l0.1,8.2c-7.3,0.7-18.3,1-31,1
				c-23.6,0-34.1-5.7-34.1-18.2c0-10.8,14.3-21.3,32.7-30.5c-0.7-7.8-4.2-11.6-9.1-11.6c-9,0-18.3,5-29.4,17.3
				c-3.4,3.8-8.2,8.6-13.5,13.4l-6-6c12.3-10.8,23.9-21.2,31-45.4l-6.9,0.1h-20.5v-8c7.5,0.1,16.2,0.1,21.3,0.1l8.4-0.1
				c1.4-5.7,2.5-10.9,3.3-17.6l12.1,1.5c-0.2,1.2-1.2,2-3.1,2.2c-0.9,4.9-2,9.2-3.1,13.7c8.4-0.1,26.3-2.1,42.3-7.1l1.5,8.2
				c-15.4,4.8-33.9,6.5-46.1,6.9c-3,9.2-6,16.6-8.9,20.8h0.1c5.4-4.8,13.5-8,19.8-8c8.4,0,13.7,6,15.3,16
				c10.3-4.7,23.4-9.7,33.2-13.5L2597,1386.1z"/>
			<path class="st3" d="M2627.2,1377.2c-4.9,8-10.3,15.1-15.9,21c-1-2-3.1-5.9-4.4-7.7c12.4-12.8,24.6-34.3,31.9-56.1l10.1,3.3
				c-0.5,0.9-1.4,1.2-2.8,1.2c-3.3,8.9-7.3,17.6-11.7,26l3.4,1c-0.1,0.9-0.9,1.4-2.3,1.6v80.3h-8.2V1377.2z M2724,1362.4h-39.5v18.9
				h36.5v7.7h-36.5v19.8h38.3v7.9h-38.3v30.9h-8.4v-85.2h-11.4c-5.2,10.7-11.1,20.5-17.3,27.8c-1.5-1.6-4.4-4.3-6.3-5.7
				c10-11.3,19.6-30.8,25.3-49.4l10.6,3.1c-0.5,0.9-1.4,1.4-3,1.4c-1.7,4.9-3.6,10-5.7,14.9h55.6V1362.4z"/>
			<path class="st3" d="M2805.4,1363.6c1.5,16.9,4.2,32.7,7.9,45.6c6.9-10.3,12.4-22.1,16.5-35.2l10.1,3.1c-0.2,0.9-1.2,1.2-2.8,1.2
				c-5,15.1-11.9,28.7-20.7,40.2c5,13,11.2,21.3,18.3,21.3c3.8,0,5.5-6.8,6.4-23.6c1.8,1.8,4.7,3.7,7,4.4
				c-1.7,21.2-4.9,27.4-14,27.4c-10,0-17.7-8.6-23.6-22.1c-8,8.9-17.2,16.4-27.6,22.3c-1.1-1.7-3.7-4.8-5.4-6.4
				c11.4-6,21.3-14.3,29.6-24.5c-4.9-14.8-8.2-33.7-10-53.8h-45.1v16.6h28.3l1.7-0.1l4.3,0.2v2.8c-0.6,29.4-1.4,40-3.9,43.3
				c-3.1,3.3-6.3,3.4-12.9,3.4c-2.8,0-6,0-9.3-0.2c-0.2-2.5-1.1-5.7-2.5-7.7c6,0.6,11.7,0.6,13.8,0.6c1.7,0,3.1-0.2,3.9-1.2
				c1.7-2.1,2.3-10.5,2.8-33.5h-26.2c0,12.2,0,41.5-13.8,60.1c-1.4-1.6-4.7-4.3-6.5-5.4c10.9-15.1,12.2-36.4,12.2-52.5v-34.4h52.8
				c-0.5-7.3-0.7-14.6-0.9-22l11.1,0.6c0,1-0.9,1.6-2.6,1.8c0,6.5,0.1,13.2,0.5,19.6h40.2v8H2805.4z M2818.1,1334.4
				c7.9,4.1,17.6,10.1,22.4,14.5l-5.2,5.5c-4.8-4.4-14.4-10.8-22.3-15L2818.1,1334.4z"/>
		</g>
		<path class="st5" d="M3008.5,1028.3c0-57.9,46.9-104.8,104.8-104.8h1011.3c57.9,0,104.8,46.9,104.8,104.8v419.3
			c0,57.9-46.9,104.8-104.8,104.8H3113.3c-57.9,0-104.8-46.9-104.8-104.8V1028.3z"/>
		<g class="st2">
			<path class="st3" d="M3254.8,1039.4c-0.4,0.7-0.9,1.2-1.7,1.5c-10.5,50.4-36.6,80.3-80.1,95.6c-1.5-2.3-4.4-5.9-6.1-7.7
				c41.2-13.4,66.5-43.1,74.5-83.4h-87v-8.9h90.4l1.9-1.2L3254.8,1039.4z"/>
			<path class="st3" d="M3360.4,1077h-31.7l0.5,49.3c0,11.6-9.8,11.8-24.9,11.6c-0.3-1.9-0.9-4.9-1.9-7.2c6.8,0.1,12.6,0,14.6-0.3
				c2.5-0.3,4-2.1,4.1-4.3l-0.4-42.3c-10.4,15.2-28.1,29.9-44.7,39.2c-1.3-2-3.5-4.5-5.3-6c17-8.6,35.4-24.6,45.6-40.2h-41.2v-7.7
				h45.5l-0.3-23.7l10.6,0.5c-0.1,1.1-1.2,1.9-2.7,2l0.1,21.1h31.8V1077z"/>
			<path class="st3" d="M3380.6,1073.3h111.1v9.4h-106c-0.8,1.3-2.5,2.3-4.3,2.5L3380.6,1073.3z"/>
			<path class="st3" d="M3615.1,1134.8c-2-4.5-4.4-9.3-7-14.1c-27.7,2.9-73.1,5.7-93.5,6.8c-0.4,1.3-1.3,2.4-2.5,2.7l-3.6-12
				c4-0.1,8.8-0.3,14-0.5c8.8-25.5,21.4-65.3,28.7-91.9l12.9,3.5c-0.5,1.2-1.9,1.9-3.9,1.9c-7.3,24.5-18.8,60.1-27.9,86.2
				c22.1-0.9,53.6-3.2,71.2-4.8c-6.9-11.4-15.7-23.5-23.7-32.5l8-4.5c14,15.3,29.9,40.6,36.7,55.1L3615.1,1134.8z"/>
			<path class="st3" d="M3730,1038.2c-3.9-4.9-8.9-10.5-12.9-14.1l4.7-3.7c6,5.1,13.3,13.4,17,19.2l-2.5,1.9l1.1,0.5
				c-0.4,0.7-1.1,1.2-1.9,1.5c-10.2,50.1-36.2,80.1-79.7,95.4c-1.6-2.4-4.3-5.9-6.1-7.7c41.8-13.8,66.5-43,74.2-83h-84.7v-9h88.2
				l1.7-1.2L3730,1038.2z M3750.5,1037.4c-3.3-5.7-10.8-14.5-16.2-19.2l4.9-3.9c6.1,5.1,12.8,13.3,16.6,19.2L3750.5,1037.4z"/>
			<path class="st3" d="M3866,1040.6v87.8h-9.6v-8.4h-73.3v8.6h-9.3v-88H3866z M3856.4,1111.1v-61.6h-73.3v61.6H3856.4z"/>
			<path class="st3" d="M3903.2,1058c4,8.1,8.4,20.9,10,28.6l-7.4,2c-1.6-7.7-5.7-19.8-9.7-28.3L3903.2,1058z M3982.6,1059
				c-0.3,1.2-1.6,1.5-2.8,1.3c-10.4,38.8-29.9,62.6-62.1,75.7c-1.1-1.6-3.5-4.7-5.2-6.1c31.8-12.5,50-34.3,59.7-73.9L3982.6,1059z
				 M3935.5,1051.6c2.8,8.9,5.3,21.7,6.2,30.2l-7.8,1.5c-0.8-8.5-3.3-20.7-6.3-29.9L3935.5,1051.6z"/>
			<path class="st3" d="M4097.8,1047.7c-0.5,0.7-1.2,1.3-2,1.9c-14,43.1-35.8,70.8-72.5,89.4c-1.6-2.3-4.1-5.3-6.8-7.3
				c34.8-16.9,56.4-43.5,67.4-78.7h-47.5c-7.7,12-18,23.5-29.8,32.8c-1.9-1.9-4.9-4.4-7.6-6.1c18.1-14,33.4-34.3,42.4-57.7l12.6,3.6
				c-0.5,1.3-2.1,1.7-3.9,1.7c-2.7,5.9-5.5,11.4-8.5,16.8h46.8l1.6-0.8L4097.8,1047.7z"/>
			<path class="st3" d="M3265.5,1235.2c-0.3,0.1-0.5,0.3-0.8,0.3c-0.8,0-1.5-0.4-2-0.8c-10.1,3.3-24.9,8.8-35.9,13.6
				c0.3,3.1,0.4,6.5,0.4,10.4c0,4.3-0.1,9-0.4,14.2l-9.7,0.5c0.4-4.8,0.7-10.9,0.7-16.1c0-2,0-3.9-0.1-5.3
				c-15,7.3-27.3,16.2-27.3,24.2c0,7.7,9.2,11.4,27.5,11.4c12.9,0,24.9-0.3,33.4-1.3l0.1,8.9c-7.8,0.8-19.8,1.1-33.5,1.1
				c-25.5,0-36.8-6.1-36.8-19.7c0-11.7,15.4-23,35.4-33c-0.8-8.4-4.5-12.5-9.8-12.5c-9.7,0-19.8,5.5-31.8,18.8
				c-3.7,4.1-8.9,9.3-14.6,14.5l-6.5-6.5c13.3-11.7,25.8-22.9,33.5-49.1l-7.4,0.1h-22.2v-8.6c8.1,0.1,17.6,0.1,23,0.1l9-0.1
				c1.5-6.1,2.7-11.8,3.6-19l13,1.6c-0.3,1.3-1.3,2.1-3.3,2.4c-0.9,5.3-2.1,10-3.3,14.8c9-0.1,28.5-2.3,45.8-7.7l1.6,8.9
				c-16.6,5.2-36.7,7-49.9,7.4c-3.2,10-6.5,18-9.6,22.5h0.1c5.9-5.2,14.6-8.6,21.4-8.6c9,0,14.8,6.5,16.5,17.3
				c11.2-5.1,25.3-10.5,35.9-14.6L3265.5,1235.2z"/>
			<path class="st3" d="M3321.3,1290.5v-95.2h68.8v11.2h-56.2v29.2h52.7v11.2h-52.7v32.4h58.4v11.2H3321.3z"/>
			<path class="st3" d="M3409.8,1290.5v-95.2h32.8c7.4,0,13.1,0.5,16.9,1.4c5.5,1.3,10.1,3.5,14,6.8c5,4.2,8.8,9.7,11.3,16.3
				c2.5,6.6,3.7,14.1,3.7,22.6c0,7.2-0.8,13.6-2.5,19.2c-1.7,5.6-3.9,10.2-6.5,13.9c-2.6,3.7-5.5,6.5-8.7,8.6
				c-3.1,2.1-6.9,3.7-11.4,4.8c-4.4,1.1-9.5,1.6-15.3,1.6H3409.8z M3422.4,1279.3h20.3c6.3,0,11.2-0.6,14.8-1.8
				c3.6-1.2,6.4-2.8,8.5-4.9c3-3,5.3-7,7-12c1.7-5,2.5-11.2,2.5-18.3c0-10-1.6-17.6-4.9-23c-3.3-5.3-7.2-8.9-11.9-10.7
				c-3.4-1.3-8.8-1.9-16.3-1.9h-20V1279.3z"/>
			<path class="st3" d="M3501.5,1259.9l11.9-1c0.6,4.8,1.9,8.7,3.9,11.7c2.1,3.1,5.2,5.5,9.6,7.4c4.3,1.9,9.2,2.8,14.6,2.8
				c4.8,0,9-0.7,12.7-2.1s6.4-3.4,8.2-5.9c1.8-2.5,2.7-5.2,2.7-8.2c0-3-0.9-5.6-2.6-7.8c-1.7-2.2-4.6-4.1-8.6-5.6
				c-2.6-1-8.2-2.5-16.9-4.6c-8.7-2.1-14.9-4.1-18.4-5.9c-4.5-2.4-7.9-5.3-10.2-8.9c-2.2-3.5-3.3-7.5-3.3-11.9
				c0-4.8,1.4-9.3,4.1-13.5c2.7-4.2,6.7-7.3,11.9-9.5s11.1-3.2,17.5-3.2c7.1,0,13.3,1.1,18.7,3.4c5.4,2.3,9.5,5.6,12.4,10
				s4.5,9.4,4.7,15l-12.1,0.9c-0.6-6-2.8-10.6-6.6-13.6c-3.7-3.1-9.3-4.6-16.6-4.6c-7.6,0-13.2,1.4-16.7,4.2
				c-3.5,2.8-5.2,6.2-5.2,10.1c0,3.4,1.2,6.2,3.7,8.4c2.4,2.2,8.8,4.5,19,6.8c10.2,2.3,17.3,4.3,21.1,6.1c5.5,2.6,9.6,5.8,12.3,9.7
				c2.6,3.9,4,8.4,4,13.5c0,5.1-1.5,9.8-4.4,14.3c-2.9,4.5-7.1,8-12.5,10.5c-5.4,2.5-11.6,3.7-18.3,3.7c-8.6,0-15.8-1.3-21.7-3.8
				c-5.8-2.5-10.4-6.3-13.7-11.3C3503.4,1272,3501.7,1266.3,3501.5,1259.9z"/>
			<path class="st3" d="M3631.5,1198.1h84.6l0.8-0.4l9,6.9c-0.4,0.5-0.8,0.9-1.6,1.2c-10.8,50-33.9,76.1-74.6,91.5
				c-1.5-2.4-4.1-5.9-6-7.8c38.7-14.2,61-39,69.7-82.2h-81.9V1198.1z M3732.8,1174.3c8,0,14.5,6.5,14.5,14.6c0,8-6.5,14.5-14.5,14.5
				c-8.1,0-14.6-6.5-14.6-14.5C3718.2,1180.5,3725,1174.3,3732.8,1174.3z M3742.9,1188.9c0-5.7-4.5-10.2-10.1-10.2
				s-10.2,4.5-10.2,10.2c0,5.6,4.7,10.2,10.2,10.2C3738.7,1199.1,3742.9,1194.2,3742.9,1188.9z"/>
			<path class="st3" d="M3857.4,1200.2v87.8h-9.6v-8.4h-73.3v8.6h-9.3v-88H3857.4z M3847.9,1270.7v-61.6h-73.3v61.6H3847.9z"/>
			<path class="st3" d="M3886.8,1220.7c12,2.7,26.9,7.7,35.8,12l-4,8.4c-8.8-4.3-24.1-9.6-35.8-12.2L3886.8,1220.7z M3894.8,1285.7
				c42.7-14.4,72.9-37.8,90.4-77.4c2,1.7,6,4.7,8.1,6c-17.8,39.2-49.3,64.2-89.5,78.5c0.4,1.2-0.4,2.8-1.5,3.3L3894.8,1285.7z
				 M3901.5,1187.7c12,3.2,26.6,8.5,35.6,13l-4.4,8.1c-9.4-4.8-23.3-10.1-35.2-13.4L3901.5,1187.7z M3963.7,1183.3
				c5.5,4.7,13,12.9,17.2,19.3l-5.2,3.9c-3.7-5.7-11.4-14.6-16.9-19.4L3963.7,1183.3z M3982.2,1175.2c5.5,4.7,13,13,17.3,19.2
				l-5.2,3.9c-4-5.9-11.4-14.4-16.9-19.2L3982.2,1175.2z"/>
			<path class="st3" d="M4087,1219.4v7.7h-32.7v52.3h40.2v7.7h-88.8v-7.7h40.2v-52.3h-32.5v-7.7H4087z"/>
			<path class="st3" d="M3421.5,1366.9c-0.5,0.7-1.2,1.3-2,1.9c-14,43.1-35.8,70.8-72.5,89.4c-1.6-2.3-4.1-5.3-6.8-7.3
				c34.8-16.9,56.4-43.5,67.4-78.7h-47.5c-7.7,12-18,23.5-29.8,32.8c-1.9-1.9-4.9-4.4-7.6-6.1c18.1-14,33.4-34.3,42.4-57.7l12.6,3.6
				c-0.5,1.3-2.1,1.7-3.9,1.7c-2.7,5.9-5.5,11.4-8.5,16.8h46.8l1.6-0.8L3421.5,1366.9z"/>
			<path class="st3" d="M3516.3,1412.3c-13.6-7.3-32.2-16-46.7-21.7v66.5h-10v-115.6l13.4,0.8c-0.1,1.5-1.2,2.4-3.5,2.8v38.8l2-2.8
				c15.6,5.7,36.2,14.9,50,22.2L3516.3,1412.3z"/>
			<path class="st3" d="M3571,1347.7c-0.4,1.5-1.7,2.3-4.4,2.1c-4.7,21.7-7,45.5-7,59.8c0,10,0.4,20.1,1.7,26.3
				c2.5-6.5,8.2-20.5,10.1-25.1l5.6,5.9c-5.5,13.4-9.4,21-11.3,27c-0.7,2.3-1.1,4.4-1.1,6.3c0,1.5,0.3,2.8,0.7,4.1l-9.4,1.7
				c-4.3-12.6-5.9-28.1-5.9-45.8c0-17.4,2.8-41.8,7-64.8L3571,1347.7z M3655.7,1444.9c-4.8,0.3-9.7,0.4-14.6,0.4
				c-9.4,0-18.4-0.5-24.7-1.5c-16.4-2.4-23.9-11.4-23.9-22.1c0-9.2,5.1-16.9,12.5-25.7l8.6,3.7c-6.6,6.9-11.3,13.3-11.3,20.9
				c0,15.4,22.6,15.4,36.4,15.4c5.6,0,11.6-0.3,17.2-0.7L3655.7,1444.9z M3594.1,1363.7c17.2-0.4,40.3-2,58-5.1l0.8,9.3
				c-16.5,2.8-43.2,4.5-58.5,4.9L3594.1,1363.7z"/>
			<path class="st3" d="M3701.6,1391.1v43.5c10.4,15.8,29.4,15.8,53.3,15.8c14.4,0,31.3-0.4,41.6-1.1c-1.1,2.1-2.7,6.4-2.9,9
				c-9.2,0.4-23.8,0.7-37,0.7c-27.4,0-45.6,0-59.1-16.5c-6.5,5.9-13.6,11.8-19.3,16.4c0.1,1.2-0.3,1.7-1.2,2.1l-5.2-9.8
				c6.4-4.3,14.2-10.4,21-16.2v-35.4h-19.6v-8.5H3701.6z M3681.8,1341.2c8.9,5.7,19.2,14.5,23.8,21l-7,6
				c-4.4-6.6-14.5-15.7-23.4-21.7L3681.8,1341.2z M3728.4,1437.3v5.9h-8.8v-91h21.9c2-4.8,3.9-10.6,4.9-14.9l12,2.4
				c-0.4,0.9-1.2,1.3-2.8,1.5c-1.3,3.1-3.1,7.2-4.9,11h31v35h-53.3v12.9h58.8v43h-8.8v-5.7H3728.4z M3773,1359.9h-44.6v19.5h44.6
				V1359.9z M3778.4,1407.8h-50v21.8h50V1407.8z"/>
			<path class="st3" d="M3857.7,1364.1l2.1-0.1l4.7,0.3c0,0.8-0.1,2.1-0.1,3.2c-1.1,61.3-2.1,80.9-6,86.4c-2.9,4.1-5.6,5.1-15.3,5.1
				c-2.7,0-5.6-0.1-8.5-0.3c-0.3-2.7-1.1-6.4-2.5-8.9c6.1,0.5,11.7,0.5,14,0.5c2.1,0,3.3-0.4,4.5-2.1c2.8-3.9,4.1-22.2,5.1-75.3
				h-21.8c-1.2,35.4-5.5,68.4-22.2,88.6c-1.5-2-4.7-4.5-6.9-5.9c15.4-18.1,19.3-48.7,20.3-82.7h-18.2v-8.8h18.5
				c0.1-8.5,0.1-17.3,0.1-26.1l12.2,0.7c-0.3,1.2-1.2,2-3.3,2.3c0,7.7-0.1,15.4-0.3,23.1H3857.7z M3877,1353.8h45.2v103.5h-8.9v-8.9
				h-27.7v10h-8.6V1353.8z M3885.6,1439.7h27.7v-77.3h-27.7V1439.7z"/>
		</g>
	</g>
</g>
</svg>
